<?xml version="1.0" encoding="utf-8"?>
<!-- Generator: Adobe Illustrator 24.0.2, SVG Export Plug-In . SVG Version: 6.00 Build 0)  -->
<svg version="1.1" id="Layer_1" xmlns="http://www.w3.org/2000/svg" xmlns:xlink="http://www.w3.org/1999/xlink" x="0px" y="0px"
	 viewBox="0 0 77.3 77.68" style="enable-background:new 0 0 77.3 77.68;" xml:space="preserve" fill="#373737">
<style type="text/css">
	.st0{stroke:#000000;stroke-miterlimit:10;}
</style>
<path class="st0" d="M62.78,26.24l5-4.57c0.05-0.04,0.09-0.09,0.13-0.15c1.31-1.08,7-6.03,7.35-10.21c0.12-0.62,0.81-4.82-1.61-7.55
	L73.5,3.62c-2.69-2.38-6.89-1.69-7.51-1.57c-4.46,0.38-9.78,6.81-10.34,7.5l-4.57,4.99L27.38,0.47c-1.08-0.81-2.74-0.56-3.89,0.6
	l-1.76,1.76c-1.27,1.27-1.43,3.08-0.33,4.18l20.28,17.62l-12.2,14.3l-6.37-3.46c-1.1-0.54-2.42-0.33-3.28,0.54l-1.65,1.65
	c-0.54,0.54-0.83,1.25-0.83,2.01c0,0.76,0.3,1.48,0.83,2.01l5.42,5.42l-2.84,3.05c-0.37,0.4-0.36,1.01,0.03,1.39l4.97,4.97
	c0.38,0.38,0.99,0.39,1.39,0.03l3.05-2.84l5.41,5.41c0.56,0.56,1.29,0.83,2.01,0.83c0.73,0,1.46-0.28,2.02-0.83l1.66-1.66
	c0.85-0.85,1.08-2.15,0.54-3.27l-3.36-6.44l14.19-12.1l17.65,20.3c0.53,0.53,1.31,0.77,2.13,0.66c0.73-0.1,1.44-0.47,2.01-1.04
	l1.76-1.76c1.15-1.15,1.4-2.81,0.6-3.89L62.78,26.24z M74.82,52.39l-1.76,1.76c-0.26,0.26-0.58,0.43-0.87,0.47
	c-0.09,0.01-0.32,0.03-0.39-0.04l-18.25-21c-0.36-0.41-0.99-0.46-1.4-0.1L36.59,46.74c-0.35,0.3-0.45,0.81-0.24,1.22l3.71,7.11
	c0.15,0.32,0.09,0.71-0.17,0.96l-1.66,1.66c-0.33,0.33-0.87,0.33-1.2,0l-6.09-6.09c-0.19-0.19-0.45-0.29-0.71-0.29
	c-0.24,0-0.49,0.09-0.68,0.27l-3.05,2.84l-3.61-3.61l2.84-3.05c0.37-0.4,0.36-1.01-0.02-1.39l-6.11-6.11
	c-0.16-0.16-0.25-0.37-0.25-0.6c0-0.23,0.09-0.44,0.25-0.6l1.65-1.65c0.26-0.26,0.65-0.32,0.95-0.18l7.05,3.83
	c0.42,0.23,0.93,0.13,1.24-0.23l13.36-15.67c0.36-0.42,0.31-1.04-0.1-1.4L22.77,5.55c-0.19-0.19-0.13-0.79,0.38-1.31l1.76-1.76
	c0.49-0.49,1.08-0.57,1.29-0.4c0.04,0.03,0.07,0.06,0.11,0.08l24.46,14.52c0.41,0.24,0.93,0.16,1.25-0.19l5.16-5.64
	c1.47-1.82,5.97-6.6,9.03-6.82c0.04,0,0.09-0.01,0.13-0.02c0.04-0.01,3.75-0.75,5.8,1.06l0.05,0.04c1.85,2.09,1.11,5.81,1.1,5.84
	c-0.01,0.04-0.02,0.09-0.02,0.13c-0.22,3.06-4.99,7.55-6.81,9.03c-0.08,0.06-0.14,0.14-0.2,0.22l-5.42,4.96
	c-0.35,0.32-0.43,0.84-0.18,1.25l14.5,24.43c0.02,0.04,0.05,0.08,0.08,0.11C75.38,51.31,75.31,51.9,74.82,52.39"/>
<path class="st0" d="M20.53,56.96c-0.39-0.4-1.02-0.4-1.41-0.02L0.3,75.24c-0.4,0.39-0.41,1.02-0.02,1.41c0.2,0.2,0.46,0.3,0.72,0.3
	c0.25,0,0.5-0.09,0.7-0.28l18.81-18.3C20.9,57.98,20.91,57.35,20.53,56.96"/>
<path class="st0" d="M22.28,60.52l-11.5,11.19c-0.4,0.39-0.4,1.02-0.02,1.41c0.2,0.2,0.46,0.3,0.72,0.3c0.25,0,0.5-0.09,0.7-0.28
	l11.5-11.19c0.4-0.39,0.41-1.02,0.02-1.41C23.31,60.15,22.67,60.14,22.28,60.52"/>
<path class="st0" d="M8.31,74.15l-1.87,1.82c-0.4,0.39-0.41,1.02-0.02,1.41c0.2,0.2,0.46,0.3,0.72,0.3c0.25,0,0.5-0.1,0.7-0.28
	l1.87-1.82c0.4-0.39,0.4-1.02,0.02-1.41C9.33,73.77,8.7,73.76,8.31,74.15"/>
<path class="st0" d="M4.31,65.2l-1.87,1.82c-0.4,0.39-0.4,1.02-0.02,1.41c0.2,0.2,0.46,0.3,0.72,0.3c0.25,0,0.5-0.09,0.7-0.28
	l1.87-1.82c0.4-0.39,0.4-1.02,0.02-1.41C5.33,64.82,4.7,64.81,4.31,65.2"/>
<path class="st0" d="M15.87,53.94l-8.99,8.75c-0.4,0.39-0.4,1.02-0.02,1.41c0.2,0.2,0.46,0.3,0.72,0.3c0.25,0,0.5-0.09,0.7-0.28
	l8.99-8.75c0.4-0.39,0.4-1.02,0.02-1.41C16.9,53.56,16.27,53.55,15.87,53.94"/>
</svg>
