<?xml version="1.0" encoding="utf-8"?>
<!-- Generator: Adobe Illustrator 24.0.2, SVG Export Plug-In . SVG Version: 6.00 Build 0)  -->
<svg version="1.1" id="Layer_1" xmlns="http://www.w3.org/2000/svg" xmlns:xlink="http://www.w3.org/1999/xlink" x="0px" y="0px"
	 viewBox="0 0 46.22 34.08" style="enable-background:new 0 0 46.22 34.08;" xml:space="preserve">
<style type="text/css">
	.st0{fill:#373737;}
	.st1{fill:#5B5B5B;}
</style>
<g>
	<path class="st0" d="M1.2,4.99h25.66c0.48,1.5,1.92,2.58,3.61,2.58s3.07-1.08,3.61-2.58h10.94c0.66,0,1.2-0.54,1.2-1.2
		s-0.54-1.2-1.2-1.2H34.08C33.6,1.08,32.15,0,30.47,0s-3.07,1.08-3.61,2.58H1.2C0.54,2.58,0,3.13,0,3.79C0,4.51,0.6,4.99,1.2,4.99z"
		/>
	<circle class="st1" cx="30.47" cy="3.79" r="1.38"/>
	<path class="st0" d="M42.37,26.5H3.85c-2.1,0-3.79,1.68-3.79,3.79s1.68,3.79,3.79,3.79h38.52c2.1,0,3.79-1.68,3.79-3.79
		S44.47,26.5,42.37,26.5z M42.37,31.73H3.85c-0.78,0-1.38-0.6-1.38-1.38s0.6-1.38,1.38-1.38h38.52c0.78,0,1.38,0.6,1.38,1.38
		C43.81,31.13,43.21,31.73,42.37,31.73z"/>
	<path class="st0" d="M45.02,14.6H19.35c-0.48-1.5-1.92-2.58-3.61-2.58s-3.07,1.08-3.61,2.58H1.2c-0.66,0-1.2,0.54-1.2,1.2
		s0.54,1.2,1.2,1.2h10.94c0.48,1.5,1.92,2.58,3.61,2.58s3.07-1.08,3.61-2.58h25.66c0.66,0,1.2-0.54,1.2-1.2
		C46.28,15.09,45.68,14.6,45.02,14.6z"/>
	<circle class="st1" cx="15.75" cy="15.75" r="1.38"/>
</g>
</svg>
