<?xml version="1.0" encoding="utf-8"?>
<!-- Generator: Adobe Illustrator 24.0.2, SVG Export Plug-In . SVG Version: 6.00 Build 0)  -->
<svg version="1.1" id="Layer_1" xmlns="http://www.w3.org/2000/svg" xmlns:xlink="http://www.w3.org/1999/xlink" x="0px" y="0px"
	 viewBox="0 0 101.75 62.85" style="enable-background:new 0 0 101.75 62.85;" xml:space="preserve">
<style type="text/css">
	.st0{clip-path:url(#SVGID_2_);fill:#373737;}
	.st1{clip-path:url(#SVGID_2_);fill:#FFFFFF;}
	.st2{clip-path:url(#SVGID_2_);fill:#E8EAE9;}
	.st3{clip-path:url(#SVGID_2_);fill:#5B5B5B;}
	.st4{clip-path:url(#SVGID_2_);fill:#EFEFEF;}
	.st5{clip-path:url(#SVGID_2_);fill:#FAB74C;}
	.st6{clip-path:url(#SVGID_2_);fill:#E25F90;}
	.st7{clip-path:url(#SVGID_2_);fill:#1CC6AD;}
</style>
<g>
	<g>
		<defs>
			<rect id="SVGID_1_" x="0" width="101.75" height="62.85"/>
		</defs>
		<clipPath id="SVGID_2_">
			<use xlink:href="#SVGID_1_"  style="overflow:visible;"/>
		</clipPath>
		<path class="st0" d="M95.85,46.92c-0.26,0-0.47-0.21-0.47-0.47v-1.92c0-0.26,0.21-0.47,0.47-0.47c0.26,0,0.48,0.21,0.48,0.47v1.92
			C96.32,46.71,96.11,46.92,95.85,46.92 M95.83,43.07c-0.25,0-0.46-0.19-0.47-0.44c-0.04-0.6-0.16-1.18-0.37-1.74
			c-0.09-0.25,0.04-0.52,0.28-0.61c0.25-0.09,0.52,0.03,0.61,0.28c0.24,0.64,0.38,1.32,0.43,2.01c0.02,0.26-0.18,0.49-0.44,0.5
			C95.85,43.07,95.84,43.07,95.83,43.07 M94.53,39.52c-0.15,0-0.29-0.07-0.38-0.19c-0.36-0.48-0.78-0.9-1.26-1.26
			c-0.21-0.16-0.25-0.45-0.1-0.66c0.16-0.21,0.45-0.25,0.66-0.1c0.55,0.41,1.04,0.9,1.45,1.45c0.16,0.21,0.11,0.51-0.1,0.66
			C94.72,39.49,94.62,39.52,94.53,39.52 M91.49,37.25c-0.05,0-0.11-0.01-0.16-0.03c-0.56-0.21-1.14-0.33-1.74-0.37
			c-0.26-0.02-0.46-0.24-0.44-0.5c0.02-0.26,0.23-0.47,0.51-0.44c0.69,0.05,1.36,0.19,2.01,0.43c0.25,0.09,0.37,0.36,0.28,0.61
			C91.86,37.13,91.68,37.25,91.49,37.25 M87.69,36.83h-1.92c-0.26,0-0.47-0.21-0.47-0.47s0.21-0.47,0.47-0.47h1.92
			c0.26,0,0.47,0.21,0.47,0.47S87.95,36.83,87.69,36.83 M83.85,36.83h-1.92c-0.26,0-0.47-0.21-0.47-0.47s0.21-0.47,0.47-0.47h1.92
			c0.26,0,0.47,0.21,0.47,0.47S84.11,36.83,83.85,36.83"/>
		<path class="st0" d="M79.99,36.83h-0.95c-0.26,0-0.47-0.21-0.47-0.47s0.21-0.47,0.47-0.47h0.95c0.26,0,0.47,0.21,0.47,0.47
			S80.26,36.83,79.99,36.83"/>
		<path class="st1" d="M95.85,48.52L95.85,48.52c-2.99,0-5.42,2.43-5.42,5.42v3c0,2.99,2.43,5.42,5.42,5.42c3,0,5.43-2.43,5.43-5.42
			v-3C101.27,50.95,98.84,48.52,95.85,48.52"/>
		<rect x="95.38" y="48.52" class="st0" width="0.95" height="3.86"/>
		<path class="st2" d="M96.43,48.52h-1.17c-0.14,0-0.27,0.01-0.4,0.02c2.48,0.21,4.44,2.28,4.44,4.82v4.17
			c0,2.54-1.95,4.61-4.44,4.82c0.13,0.01,0.27,0.02,0.4,0.02h1.17c2.67,0,4.84-2.17,4.84-4.84v-4.17
			C101.27,50.69,99.11,48.52,96.43,48.52"/>
		<path class="st0" d="M96.43,62.85h-1.17c-2.93,0-5.31-2.38-5.31-5.31v-4.17c0-2.93,2.38-5.31,5.31-5.31h1.17
			c2.93,0,5.31,2.38,5.31,5.31v4.17C101.75,60.47,99.36,62.85,96.43,62.85 M95.26,49c-2.41,0-4.37,1.96-4.37,4.37v4.17
			c0,2.41,1.96,4.37,4.37,4.37h1.17c2.41,0,4.37-1.96,4.37-4.37v-4.17c0-2.41-1.96-4.37-4.37-4.37H95.26z"/>
		<rect x="9.92" y="4.9" class="st1" width="70.16" height="42.98"/>
		<path class="st3" d="M75.65,0.47H14.34c-2.44,0-4.42,1.98-4.42,4.42h70.16C80.08,2.46,78.1,0.47,75.65,0.47"/>
		<path class="st4" d="M48.32,3.32h-6.64c-0.35,0-0.63-0.28-0.63-0.63c0-0.35,0.28-0.63,0.63-0.63h6.64c0.35,0,0.63,0.28,0.63,0.63
			C48.95,3.04,48.67,3.32,48.32,3.32"/>
		<path class="st3" d="M6.09,52.54h77.82c3.1,0,5.62-2.09,5.62-4.66H0.47C0.47,50.45,2.99,52.54,6.09,52.54"/>
		<polygon class="st0" points="56.77,47.88 33.23,47.88 35.12,49.22 54.88,49.22 		"/>
		<path class="st0" d="M83.91,53.02H6.09c-3.36,0-6.09-2.3-6.09-5.14c0-0.26,0.21-0.47,0.47-0.47h8.97V4.9c0-2.7,2.2-4.9,4.9-4.9
			h61.31c2.7,0,4.9,2.2,4.9,4.9v42.51h8.97c0.26,0,0.47,0.21,0.47,0.47C90,50.71,87.27,53.02,83.91,53.02 M0.98,48.35
			c0.29,2.09,2.47,3.71,5.11,3.71h77.82c2.64,0,4.82-1.63,5.11-3.71h-8.94c-0.26,0-0.47-0.21-0.47-0.47V4.9
			c0-2.18-1.77-3.95-3.95-3.95H14.34c-2.18,0-3.95,1.77-3.95,3.95v42.98c0,0.26-0.21,0.47-0.48,0.47H0.98z"/>
		<path class="st0" d="M29.72,48.35H9.92c-0.26,0-0.47-0.21-0.47-0.47c0-0.26,0.21-0.47,0.47-0.47h19.81c0.26,0,0.47,0.21,0.47,0.47
			C30.2,48.14,29.99,48.35,29.72,48.35"/>
		<path class="st0" d="M80.08,48.35h-19.8c-0.26,0-0.47-0.21-0.47-0.47c0-0.26,0.21-0.47,0.47-0.47h19.8c0.26,0,0.47,0.21,0.47,0.47
			C80.55,48.14,80.34,48.35,80.08,48.35"/>
		<rect x="23.63" y="13.56" class="st0" width="42.73" height="28.11"/>
		<rect x="23.63" y="11.22" class="st3" width="42.73" height="2.34"/>
		<path class="st5" d="M64.42,12.39c0-0.29-0.24-0.53-0.53-0.53c-0.29,0-0.53,0.24-0.53,0.53c0,0.29,0.24,0.53,0.53,0.53
			C64.18,12.92,64.42,12.68,64.42,12.39"/>
		<path class="st6" d="M62.21,12.39c0-0.29-0.24-0.53-0.53-0.53s-0.53,0.24-0.53,0.53c0,0.29,0.24,0.53,0.53,0.53
			S62.21,12.68,62.21,12.39"/>
		<path class="st7" d="M59.99,12.39c0-0.29-0.24-0.53-0.53-0.53c-0.29,0-0.53,0.24-0.53,0.53c0,0.29,0.24,0.53,0.53,0.53
			C59.76,12.92,59.99,12.68,59.99,12.39"/>
		<rect x="25.86" y="15.75" class="st1" width="2" height="0.32"/>
		<rect x="25.86" y="18.01" class="st1" width="2" height="0.32"/>
		<rect x="25.86" y="20.28" class="st1" width="2" height="0.32"/>
		<rect x="25.86" y="22.54" class="st1" width="2" height="0.32"/>
		<rect x="25.86" y="24.81" class="st1" width="2" height="0.32"/>
		<rect x="25.86" y="27.07" class="st1" width="2" height="0.32"/>
		<rect x="25.86" y="29.34" class="st1" width="2" height="0.31"/>
		<rect x="25.86" y="31.6" class="st1" width="2" height="0.32"/>
		<rect x="25.86" y="33.87" class="st1" width="2" height="0.32"/>
		<rect x="25.86" y="36.13" class="st1" width="2" height="0.32"/>
		<rect x="25.86" y="38.4" class="st1" width="2" height="0.32"/>
		<rect x="29.5" y="18.01" class="st6" width="8.82" height="0.32"/>
		<rect x="37.45" y="20.28" class="st6" width="4.74" height="0.32"/>
		<rect x="29.5" y="22.54" class="st5" width="6.58" height="0.32"/>
		<rect x="40.61" y="33.87" class="st5" width="4.06" height="0.32"/>
		<rect x="29.5" y="36.13" class="st6" width="2.82" height="0.32"/>
		<rect x="29.5" y="15.75" class="st7" width="4.52" height="0.32"/>
		<rect x="42.09" y="15.75" class="st7" width="7.85" height="0.32"/>
		<rect x="36.34" y="15.75" class="st7" width="3.48" height="0.32"/>
		<rect x="29.5" y="20.28" class="st7" width="6.11" height="0.32"/>
		<rect x="43.82" y="20.28" class="st7" width="6.11" height="0.32"/>
		<rect x="29.5" y="24.81" class="st7" width="7.8" height="0.32"/>
		<rect x="45.54" y="29.34" class="st7" width="4.4" height="0.31"/>
		<rect x="36.5" y="29.34" class="st7" width="7.16" height="0.31"/>
		<rect x="29.5" y="29.34" class="st7" width="4.95" height="0.31"/>
		<rect x="29.5" y="31.6" class="st7" width="9.9" height="0.32"/>
		<rect x="29.5" y="33.87" class="st7" width="10.35" height="0.32"/>
		<rect x="35.13" y="36.13" class="st7" width="12.48" height="0.32"/>
		<rect x="29.5" y="38.4" class="st7" width="6.9" height="0.32"/>
		<rect x="25.86" y="16.79" class="st1" width="2" height="0.32"/>
		<rect x="25.86" y="19.05" class="st1" width="2" height="0.32"/>
		<rect x="25.86" y="21.32" class="st1" width="2" height="0.32"/>
		<rect x="25.86" y="23.58" class="st1" width="2" height="0.32"/>
		<rect x="25.86" y="25.85" class="st1" width="2" height="0.32"/>
		<rect x="25.86" y="28.12" class="st1" width="2" height="0.31"/>
		<rect x="25.86" y="30.38" class="st1" width="2" height="0.31"/>
		<rect x="25.86" y="32.64" class="st1" width="2" height="0.32"/>
		<rect x="25.86" y="34.91" class="st1" width="2" height="0.32"/>
		<rect x="25.86" y="37.17" class="st1" width="2" height="0.32"/>
		<rect x="25.86" y="39.44" class="st1" width="2" height="0.32"/>
		<rect x="29.5" y="19.05" class="st6" width="11.43" height="0.32"/>
		<rect x="37.45" y="21.32" class="st7" width="6.37" height="0.32"/>
		<rect x="29.5" y="23.58" class="st5" width="20.44" height="0.32"/>
		<rect x="38.82" y="34.91" class="st5" width="6.82" height="0.32"/>
		<rect x="29.5" y="37.17" class="st6" width="2.82" height="0.32"/>
		<rect x="29.5" y="16.79" class="st7" width="9.03" height="0.32"/>
		<rect x="39.4" y="16.79" class="st7" width="10.53" height="0.32"/>
		<rect x="29.5" y="21.32" class="st7" width="6.11" height="0.32"/>
		<rect x="43.82" y="21.32" class="st7" width="6.11" height="0.32"/>
		<rect x="29.5" y="25.85" class="st7" width="7.8" height="0.32"/>
		<rect x="29.5" y="30.38" class="st7" width="20.44" height="0.31"/>
		<rect x="29.5" y="32.64" class="st7" width="3.58" height="0.32"/>
		<rect x="29.5" y="34.91" class="st7" width="8.32" height="0.32"/>
		<rect x="35.13" y="37.17" class="st7" width="12.48" height="0.32"/>
		<rect x="29.5" y="39.44" class="st7" width="12.8" height="0.32"/>
		<rect x="42.09" y="19.05" class="st6" width="2.91" height="0.32"/>
		<rect x="37.29" y="22.54" class="st5" width="3.63" height="0.32"/>
		<rect x="38.32" y="25.85" class="st7" width="3.06" height="0.32"/>
		<rect x="40.27" y="31.6" class="st7" width="2.82" height="0.32"/>
	</g>
</g>
</svg>
