<?xml version="1.0" encoding="utf-8"?>
<!-- Generator: Adobe Illustrator 24.0.2, SVG Export Plug-In . SVG Version: 6.00 Build 0)  -->
<svg version="1.1" id="Layer_1" xmlns="http://www.w3.org/2000/svg" xmlns:xlink="http://www.w3.org/1999/xlink" x="0px" y="0px"
	 viewBox="0 0 101.75 62.85" style="enable-background:new 0 0 101.75 62.85;" xml:space="preserve">
<style type="text/css">
	.st0{clip-path:url(#SVGID_2_);fill:#373737;}
	.st1{clip-path:url(#SVGID_2_);fill:#FFFFFF;}
	.st2{clip-path:url(#SVGID_2_);fill:#E8EAE9;}
	.st3{clip-path:url(#SVGID_2_);fill:#5B5B5B;}
	.st4{clip-path:url(#SVGID_2_);fill:#EFEFEF;}
	.st5{clip-path:url(#SVGID_2_);}
	.st6{fill-rule:evenodd;clip-rule:evenodd;fill:#5B5B5B;}
	.st7{fill-rule:evenodd;clip-rule:evenodd;fill:#373737;}
</style>
<g>
	<g>
		<defs>
			<rect id="SVGID_1_" x="0" width="101.75" height="62.85"/>
		</defs>
		<clipPath id="SVGID_2_">
			<use xlink:href="#SVGID_1_"  style="overflow:visible;"/>
		</clipPath>
		<path class="st0" d="M95.85,46.92c-0.26,0-0.47-0.21-0.47-0.47v-1.92c0-0.26,0.21-0.47,0.47-0.47c0.26,0,0.48,0.21,0.48,0.47v1.92
			C96.32,46.71,96.11,46.92,95.85,46.92 M95.83,43.07c-0.25,0-0.46-0.19-0.47-0.44c-0.04-0.6-0.16-1.18-0.37-1.74
			c-0.09-0.25,0.04-0.52,0.28-0.61c0.25-0.09,0.52,0.03,0.61,0.28c0.24,0.64,0.38,1.32,0.43,2.01c0.02,0.26-0.18,0.49-0.44,0.5
			C95.85,43.07,95.84,43.07,95.83,43.07 M94.53,39.52c-0.15,0-0.29-0.07-0.38-0.19c-0.36-0.48-0.78-0.9-1.26-1.26
			c-0.21-0.16-0.25-0.45-0.1-0.66c0.16-0.21,0.45-0.25,0.66-0.1c0.55,0.41,1.04,0.9,1.45,1.45c0.16,0.21,0.11,0.51-0.1,0.66
			C94.72,39.49,94.62,39.52,94.53,39.52 M91.49,37.25c-0.05,0-0.11-0.01-0.16-0.03c-0.56-0.21-1.14-0.33-1.74-0.37
			c-0.26-0.02-0.46-0.24-0.44-0.5c0.02-0.26,0.23-0.47,0.51-0.44c0.69,0.05,1.36,0.19,2.01,0.43c0.25,0.09,0.37,0.36,0.28,0.61
			C91.86,37.13,91.68,37.25,91.49,37.25 M87.69,36.83h-1.92c-0.26,0-0.47-0.21-0.47-0.47s0.21-0.47,0.47-0.47h1.92
			c0.26,0,0.47,0.21,0.47,0.47S87.95,36.83,87.69,36.83 M83.85,36.83h-1.92c-0.26,0-0.47-0.21-0.47-0.47s0.21-0.47,0.47-0.47h1.92
			c0.26,0,0.47,0.21,0.47,0.47S84.11,36.83,83.85,36.83"/>
		<path class="st0" d="M79.99,36.83h-0.95c-0.26,0-0.47-0.21-0.47-0.47s0.21-0.47,0.47-0.47h0.95c0.26,0,0.47,0.21,0.47,0.47
			S80.26,36.83,79.99,36.83"/>
		<path class="st1" d="M95.85,48.52L95.85,48.52c-2.99,0-5.42,2.43-5.42,5.42v3c0,2.99,2.43,5.42,5.42,5.42c3,0,5.43-2.43,5.43-5.42
			v-3C101.27,50.95,98.84,48.52,95.85,48.52"/>
		<rect x="95.38" y="48.52" class="st0" width="0.95" height="3.86"/>
		<path class="st2" d="M96.43,48.52h-1.17c-0.14,0-0.27,0.01-0.4,0.02c2.48,0.21,4.44,2.28,4.44,4.82v4.17
			c0,2.54-1.95,4.61-4.44,4.82c0.13,0.01,0.27,0.02,0.4,0.02h1.17c2.67,0,4.84-2.17,4.84-4.84v-4.17
			C101.27,50.69,99.11,48.52,96.43,48.52"/>
		<path class="st0" d="M96.43,62.85h-1.17c-2.93,0-5.31-2.38-5.31-5.31v-4.17c0-2.93,2.38-5.31,5.31-5.31h1.17
			c2.93,0,5.31,2.38,5.31,5.31v4.17C101.75,60.47,99.36,62.85,96.43,62.85 M95.26,49c-2.41,0-4.37,1.96-4.37,4.37v4.17
			c0,2.41,1.96,4.37,4.37,4.37h1.17c2.41,0,4.37-1.96,4.37-4.37v-4.17c0-2.41-1.96-4.37-4.37-4.37H95.26z"/>
		<rect x="9.92" y="4.9" class="st1" width="70.16" height="42.98"/>
		<path class="st3" d="M75.65,0.47H14.34c-2.44,0-4.42,1.98-4.42,4.42h70.16C80.08,2.46,78.1,0.47,75.65,0.47"/>
		<path class="st4" d="M48.32,3.32h-6.64c-0.35,0-0.63-0.28-0.63-0.63c0-0.35,0.28-0.63,0.63-0.63h6.64c0.35,0,0.63,0.28,0.63,0.63
			C48.95,3.04,48.67,3.32,48.32,3.32"/>
		<path class="st3" d="M6.09,52.54h77.82c3.1,0,5.62-2.09,5.62-4.66H0.47C0.47,50.45,2.99,52.54,6.09,52.54"/>
		<polygon class="st0" points="56.77,47.88 33.23,47.88 35.12,49.22 54.88,49.22 		"/>
		<path class="st0" d="M83.91,53.02H6.09c-3.36,0-6.09-2.3-6.09-5.14c0-0.26,0.21-0.47,0.47-0.47h8.97V4.9c0-2.7,2.2-4.9,4.9-4.9
			h61.31c2.7,0,4.9,2.2,4.9,4.9v42.51h8.97c0.26,0,0.47,0.21,0.47,0.47C90,50.71,87.27,53.02,83.91,53.02 M0.98,48.35
			c0.29,2.09,2.47,3.71,5.11,3.71h77.82c2.64,0,4.82-1.63,5.11-3.71h-8.94c-0.26,0-0.47-0.21-0.47-0.47V4.9
			c0-2.18-1.77-3.95-3.95-3.95H14.34c-2.18,0-3.95,1.77-3.95,3.95v42.98c0,0.26-0.21,0.47-0.48,0.47H0.98z"/>
		<path class="st0" d="M29.72,48.35H9.92c-0.26,0-0.47-0.21-0.47-0.47c0-0.26,0.21-0.47,0.47-0.47h19.81c0.26,0,0.47,0.21,0.47,0.47
			C30.2,48.14,29.99,48.35,29.72,48.35"/>
		<path class="st0" d="M80.08,48.35h-19.8c-0.26,0-0.47-0.21-0.47-0.47c0-0.26,0.21-0.47,0.47-0.47h19.8c0.26,0,0.47,0.21,0.47,0.47
			C80.55,48.14,80.34,48.35,80.08,48.35"/>
		<g class="st5">
			<path class="st6" d="M49.21,11.31c1.26,3.01,2.26,3.01,3.14-0.12c0.63,0.12,1.26,0.25,1.88,0.38c-0.38,3.27,0.38,3.64,2.76,1.51
				c0.5,0.38,1,0.75,1.38,1.26c-1.89,2.51-1.51,3.39,1.76,2.64c0.25,0.5,0.38,1.13,0.5,1.76c-2.89,1.26-3.01,2.14,0.13,3.14
				c0,0.63-0.13,1.26-0.38,1.76c-3.14-0.38-3.64,0.5-1.38,2.89c-0.38,0.5-0.75,0.88-1.26,1.38c-2.64-1.89-3.39-1.51-2.64,1.63
				c-0.5,0.25-1,0.38-1.51,0.5h-0.38c-0.38-0.88-0.75-1.51-1-1.76c0.63-0.38,1.25-0.75,2.01-1.01l-0.25-0.88
				c0.25-0.12,0.5-0.25,0.75-0.38c2.89-1.88,3.77-5.78,1.76-8.67c-1.88-2.89-5.78-3.77-8.67-1.88c-0.75,0.5-1.38,1.13-1.88,1.88
				l-1.01-0.38c-0.12-0.5-0.63-1.13-1.38-2.01c0.38-0.5,0.75-0.88,1.26-1.38c2.51,1.88,3.39,1.63,2.64-1.63
				C48.08,11.69,48.58,11.44,49.21,11.31L49.21,11.31z M48.2,15.96c-1.26,0.75-2.14,2.01-2.51,3.39c0,0.63,0.12,1.13,0.25,1.26h0.25
				c0.12-1.63,0.88-3.14,2.39-4.15c2.26-1.51,5.4-0.88,6.91,1.51c1.51,2.39,0.88,5.53-1.51,7.03c-0.13,0-0.25,0.12-0.38,0.25
				c0.12,0.13,0.12,0.38,0.25,0.63c0.13-0.12,0.38-0.25,0.5-0.38c2.64-1.76,3.39-5.28,1.76-7.91C54.36,14.96,50.84,14.2,48.2,15.96z
				"/>
			<path class="st7" d="M38.78,17.47c1.63,3.77,2.76,3.77,4.02-0.25c0.75,0.13,1.51,0.38,2.26,0.5c-0.38,4.15,0.5,4.77,3.64,1.88
				c0.63,0.5,1.13,1,1.76,1.63c-2.51,3.27-2.01,4.27,2.13,3.39c0.25,0.75,0.5,1.38,0.75,2.14c-3.77,1.76-3.89,2.89,0.13,4.15
				c-0.13,0.75-0.25,1.51-0.5,2.26c-4.02-0.5-4.65,0.5-1.76,3.52c-0.5,0.63-1,1.26-1.63,1.76c-3.27-2.39-4.27-1.88-3.39,2.14
				c-0.75,0.38-1.51,0.63-2.26,0.75c-1.63-3.77-2.76-3.77-4.02,0.25c-0.75-0.13-1.51-0.25-2.26-0.5c0.5-4.14-0.5-4.65-3.64-1.88
				c-0.63-0.5-1.13-1.01-1.63-1.63c2.39-3.27,1.88-4.27-2.26-3.39c-0.25-0.63-0.5-1.38-0.63-2.13c3.64-1.63,3.77-2.76-0.25-4.02
				c0.13-0.88,0.25-1.63,0.5-2.39c4.02,0.5,4.65-0.5,1.89-3.52c0.38-0.63,1-1.26,1.51-1.76c3.27,2.39,4.27,2.01,3.39-2.14
				C37.27,17.85,38.03,17.6,38.78,17.47 M37.9,24c3.01-1.88,6.91-1,8.92,1.88c1.89,3.01,1.01,7.03-2.01,8.92
				c-2.89,1.88-6.91,1.13-8.79-1.88C34.01,29.91,34.89,26.01,37.9,24"/>
		</g>
	</g>
</g>
</svg>
