<?xml version="1.0" encoding="utf-8"?>
<!-- Generator: Adobe Illustrator 24.0.2, SVG Export Plug-In . SVG Version: 6.00 Build 0)  -->
<svg version="1.1" id="Layer_1" xmlns="http://www.w3.org/2000/svg" xmlns:xlink="http://www.w3.org/1999/xlink" x="0px" y="0px"
	 viewBox="0 0 500 500" style="enable-background:new 0 0 500 500;" xml:space="preserve" fill="#373737">
<style type="text/css">
	.st0{clip-path:url(#SVGID_2_);}
</style>
<g>
	<defs>
		<rect id="SVGID_1_" width="500" height="500"/>
	</defs>
	<clipPath id="SVGID_2_">
		<use xlink:href="#SVGID_1_"  style="overflow:visible;"/>
	</clipPath>
	<path class="st0" d="M474,0H26C11.65,0.02,0.02,11.65,0,26v352c0.02,14.35,11.65,25.98,26,26h176.67l-6.81,54.43
		c-16.62,5.97-32.52,13.77-47.41,23.25c-4.6,3.06-5.84,9.27-2.77,13.87c1.85,2.78,4.98,4.45,8.32,4.45h192c5.52,0,10-4.48,10-10
		c0-3.34-1.67-6.46-4.45-8.32c-14.9-9.48-30.8-17.28-47.41-23.25L297.33,404H474c14.35-0.02,25.98-11.65,26-26V26
		C499.98,11.65,488.35,0.02,474,0 M26,20h448c3.31,0,6,2.69,6,6v278H20V26C20,22.69,22.69,20,26,20 M202,480h-6.53
		c15.89-6.39,35.31-12,54.53-12c19.15,0,38.56,5.61,54.46,12H202z M283.2,452.16c-21.78-5.55-44.61-5.55-66.39,0l6.02-48.16h54.35
		L283.2,452.16z M480,378c0,3.31-2.69,6-6,6H26c-3.31,0-6-2.69-6-6v-54h460V378z"/>
	<path class="st0" d="M234,364h32c5.52,0,10-4.48,10-10c0-5.52-4.48-10-10-10h-32c-5.52,0-10,4.48-10,10
		C224,359.52,228.48,364,234,364"/>
	<path class="st0" d="M98,68h24.79l45.72,137.16c0.34,1.02,0.84,1.98,1.49,2.84c-14.38-0.02-26.05,11.62-26.07,26
		c-0.02,14.38,11.62,26.05,26,26.07c14.38,0.02,26.05-11.62,26.07-26c0.01-8.96-4.58-17.3-12.17-22.07h83.46
		c-0.19,1.98-0.29,3.98-0.29,6c0,34.79,28.21,63,63,63s63-28.21,63-63s-28.21-63-63-63c-1.99,0-3.95,0.1-5.89,0.28l15.38-46.12
		c1.75-5.24-1.09-10.9-6.32-12.65C332.14,96.17,331.07,96,330,96H202c-5.52,0-10,4.48-10,10c0,5.52,4.48,10,10,10h114.12
		l-9.35,28.04c-0.26-0.02-0.51-0.04-0.78-0.04h-88c-5.52,0-10,4.48-10,10c0,5.52,4.48,10,10,10h79.59
		c-10.95,6.6-19.65,16.36-24.95,28h-87.43L139.49,54.84C138.13,50.75,134.3,48,130,48H98c-5.52,0-10,4.48-10,10
		C88,63.52,92.48,68,98,68 M170,240c-3.31,0-6-2.69-6-6c0-3.31,2.69-6,6-6s6,2.69,6,6C176,237.31,173.31,240,170,240 M373,218
		c0,23.75-19.25,43-43,43c-23.75,0-43-19.25-43-43c0-23.75,19.25-43,43-43C353.74,175.03,372.97,194.26,373,218"/>
	<path class="st0" d="M309.53,226.94l16,8c4.51,2.25,9.99,0.8,12.79-3.4l16-24c3.02-4.62,1.72-10.82-2.9-13.84
		c-4.56-2.98-10.68-1.76-13.74,2.75l-11.1,16.65l-8.1-4.05c-4.96-2.43-10.95-0.38-13.38,4.58
		C302.69,218.53,304.67,224.46,309.53,226.94L309.53,226.94z"/>
</g>
</svg>
