<?xml version="1.0" encoding="utf-8"?>
<!-- Generator: Adobe Illustrator 24.0.2, SVG Export Plug-In . SVG Version: 6.00 Build 0)  -->
<svg version="1.1" id="Layer_1" xmlns="http://www.w3.org/2000/svg" xmlns:xlink="http://www.w3.org/1999/xlink" x="0px" y="0px"
	 viewBox="0 0 116.84 116.84" style="enable-background:new 0 0 116.84 116.84;" xml:space="preserve" fill="#373737">
<style type="text/css">
	.st0{clip-path:url(#SVGID_2_);}
	.st1{clip-path:url(#SVGID_2_);fill-rule:evenodd;clip-rule:evenodd;}
</style>
<g>
	<defs>
		<rect id="SVGID_1_" width="116.84" height="116.84"/>
	</defs>
	<clipPath id="SVGID_2_">
		<use xlink:href="#SVGID_1_"  style="overflow:visible;"/>
	</clipPath>
	<path class="st0" d="M68.14,11.43c1.81,0.37,3.59,0.85,5.35,1.43l5.59-6.55c1.09-1.28,2.82-1.77,4.34-0.9l8.41,4.85
		c1.51,0.88,1.94,2.62,1.39,4.2l-2.88,8.14c1.37,1.22,2.68,2.53,3.9,3.9l8.14-2.88c1.59-0.56,3.33-0.12,4.2,1.39l4.85,8.41
		c0.87,1.51,0.38,3.24-0.9,4.34l-6.55,5.59c0.58,1.75,1.06,3.54,1.43,5.35l8.46,1.57c1.66,0.31,2.97,1.56,2.97,3.31v9.7
		c0,1.75-1.31,3-2.97,3.31l-8.46,1.57c-0.37,1.81-0.85,3.59-1.43,5.35l6.55,5.59c1.28,1.09,1.77,2.82,0.9,4.34
		c-1.62,2.8-3.23,5.61-4.85,8.41c-0.88,1.51-2.62,1.94-4.2,1.39l-8.14-2.88c-1.22,1.38-2.52,2.68-3.9,3.9l2.88,8.14
		c0.56,1.59,0.12,3.33-1.39,4.2l-8.41,4.85c-1.51,0.87-3.24,0.38-4.34-0.9l-5.59-6.55c-1.75,0.58-3.54,1.06-5.35,1.43l-1.57,8.46
		c-0.3,1.66-1.56,2.97-3.31,2.97h-9.7c-1.75,0-3-1.31-3.31-2.97l-1.57-8.46c-1.8-0.37-3.59-0.85-5.34-1.43l-5.59,6.55
		c-1.09,1.28-2.82,1.77-4.34,0.9l-8.41-4.85c-1.51-0.88-1.94-2.62-1.39-4.2l2.88-8.14c-1.38-1.22-2.68-2.52-3.9-3.9l-8.14,2.88
		c-1.59,0.56-3.33,0.12-4.2-1.39c-1.62-2.81-3.23-5.61-4.85-8.41c-0.87-1.51-0.38-3.24,0.9-4.34l6.55-5.59
		c-0.58-1.75-1.06-3.54-1.43-5.35l-8.46-1.57C1.31,66.28,0,65.02,0,63.27v-9.7c0-1.75,1.31-3,2.97-3.31l8.46-1.57
		c0.38-1.81,0.85-3.59,1.43-5.35l-6.55-5.59c-1.28-1.09-1.77-2.83-0.9-4.34l4.85-8.41c0.88-1.51,2.62-1.94,4.2-1.39l8.14,2.88
		c1.22-1.37,2.53-2.68,3.9-3.9l-2.88-8.14c-0.56-1.59-0.12-3.33,1.39-4.2l8.41-4.85c1.51-0.87,3.24-0.38,4.34,0.9l5.59,6.55
		c1.75-0.58,3.54-1.06,5.34-1.43l1.57-8.46C50.56,1.31,51.82,0,53.57,0h9.7c1.75,0,3,1.31,3.31,2.97L68.14,11.43z M62.49,112.57
		l2-10.83c3.79-0.66,6.71-1.43,10.32-2.76l7.15,8.38c2.35-1.36,4.7-2.71,7.05-4.07l-3.68-10.4c2.94-2.46,5.1-4.62,7.55-7.55
		l10.39,3.68c1.36-2.35,2.71-4.69,4.07-7.05l-8.38-7.15c1.32-3.62,2.1-6.53,2.76-10.32l10.83-2.01v-8.15l-10.83-2
		c-0.65-3.79-1.43-6.71-2.76-10.32l8.37-7.15c-1.36-2.35-2.71-4.7-4.06-7.05L92.9,31.5c-2.43-2.9-4.64-5.11-7.56-7.56l3.68-10.39
		c-2.35-1.36-4.7-2.71-7.05-4.07l-7.15,8.38c-3.62-1.32-6.53-2.1-10.32-2.76l-2-10.83h-8.15L52.34,15.1
		c-3.79,0.66-6.7,1.43-10.32,2.76l-7.15-8.38c-2.35,1.36-4.7,2.71-7.05,4.07l3.68,10.39c-2.92,2.44-5.13,4.66-7.56,7.56l-10.4-3.68
		c-1.36,2.35-2.71,4.7-4.07,7.05l8.38,7.15c-1.33,3.61-2.1,6.53-2.76,10.32l-10.83,2v8.15L15.1,64.5c0.66,3.79,1.43,6.71,2.76,10.32
		l-8.38,7.15c1.36,2.35,2.71,4.69,4.07,7.05l10.39-3.68c2.46,2.94,4.61,5.1,7.55,7.55l-3.68,10.4c2.35,1.36,4.7,2.71,7.05,4.07
		l7.15-8.38c3.61,1.33,6.53,2.1,10.32,2.76l2.01,10.83H62.49z"/>
	<path class="st0" d="M41.76,87.28c-15.11-8.72-20.95-27.66-13.35-43.36c0.47-1.22,1.93-1.74,3.07-1.08
		c1.01,0.58,1.32,1.86,0.8,2.89c-6.66,13.69-1.58,30.23,11.62,37.85c12.39,7.15,27.68,4.24,36.89-6.6
		c9.09-11.28,8.97-27.24-0.82-38.06c-10.22-11.3-27.46-12.78-39.44-3.39c-0.9,0.72-2.21,0.69-2.99-0.17
		c-0.88-0.97-0.68-2.51,0.41-3.22c13.74-10.73,33.48-9.01,45.19,3.92c11.28,12.46,11.31,30.89,1.01,43.57
		C73.93,92.02,56.02,95.52,41.76,87.28"/>
	<path class="st1" d="M34.04,36.54c1.26,0,2.29,1.03,2.29,2.29c0,1.26-1.03,2.29-2.29,2.29c-1.26,0-2.29-1.02-2.29-2.29
		C31.75,37.56,32.77,36.54,34.04,36.54"/>
	<path class="st0" d="M60.22,73.31c4.46-0.88,7.53-4.04,7.56-8.7c0-4.94-3.11-7.14-7.26-9c-1.83-0.89-5.15-2.38-5.15-4.77
		c0-2.28,2.24-3.36,4.27-3.38c2.03,0.02,3.99,0.59,5.78,1.52l1.27-4.6c-1.84-0.98-4.01-1.46-6.08-1.52v-4.48h-4.14v4.81
		c-4.24,0.98-7.11,3.95-7.14,8.36c0.05,4.48,3.3,6.69,7.01,8.4c2.24,0.97,5.31,2.37,5.28,5.24c0,5.64-8.25,3.69-11.32,1.86
		l-1.27,4.73c1.97,1.16,4.79,1.77,7.05,1.86v4.81h4.14V73.31z"/>
</g>
</svg>
