<?xml version="1.0" encoding="utf-8"?>
<!-- Generator: Adobe Illustrator 24.0.2, SVG Export Plug-In . SVG Version: 6.00 Build 0)  -->
<svg version="1.1" id="Layer_1" xmlns="http://www.w3.org/2000/svg" xmlns:xlink="http://www.w3.org/1999/xlink" x="0px" y="0px"
	 viewBox="0 0 59.13 59.13" style="enable-background:new 0 0 59.13 59.13;" xml:space="preserve">
<style type="text/css">
	.st0{fill:#373737;}
</style>
<path class="st0" d="M56.92,18.36C54.7,12.93,50.91,8.29,46.04,5.02C41.17,1.75,35.43,0,29.57,0s-11.6,1.75-16.47,5.02
	C8.22,8.29,4.43,12.93,2.21,18.36c-0.05,0.09-0.08,0.18-0.11,0.27c-2.81,7.02-2.81,14.85,0,21.87c0.03,0.09,0.06,0.18,0.11,0.27
	c2.22,5.43,6.01,10.08,10.88,13.35c4.87,3.27,10.61,5.02,16.47,5.02s11.6-1.75,16.47-5.02c4.87-3.27,8.66-7.92,10.88-13.35
	c0.05-0.09,0.08-0.18,0.11-0.27c2.81-7.02,2.81-14.85,0-21.87C57,18.54,56.96,18.45,56.92,18.36L56.92,18.36z M29.57,56.56
	c-4.95,0-9.35-6.24-11.49-15.1l22.98,0C38.92,50.32,34.52,56.56,29.57,56.56L29.57,56.56z M17.53,38.88c-1.1-6.16-1.1-12.47,0-18.64
	H41.6c0.55,3.08,0.83,6.19,0.82,9.32c0,3.12-0.27,6.24-0.82,9.32L17.53,38.88z M2.57,29.57c0-3.18,0.56-6.34,1.66-9.32H14.9
	c-1.01,6.17-1.01,12.47,0,18.64H4.23C3.13,35.9,2.57,32.75,2.57,29.57L2.57,29.57z M29.57,2.57c4.95,0,9.35,6.24,11.49,15.1
	l-22.98,0C20.21,8.81,24.61,2.57,29.57,2.57L29.57,2.57z M44.23,20.25H54.9c2.21,6.02,2.21,12.62,0,18.64H44.23
	c0.51-3.08,0.76-6.2,0.76-9.32C45,26.44,44.74,23.33,44.23,20.25L44.23,20.25z M53.79,17.68l-10.06,0c-1.34-6-3.68-10.92-6.64-14.03
	c3.6,1.05,6.95,2.85,9.82,5.26C49.79,11.32,52.13,14.31,53.79,17.68L53.79,17.68z M22.04,3.65c-2.96,3.11-5.3,8.03-6.64,14.03H5.34
	c1.66-3.37,4-6.35,6.88-8.77C15.09,6.5,18.43,4.7,22.04,3.65L22.04,3.65z M5.34,41.46H15.4c1.34,6,3.68,10.92,6.64,14.03v0
	c-3.6-1.05-6.95-2.85-9.82-5.26C9.34,47.81,7,44.82,5.34,41.46L5.34,41.46z M37.09,55.48c2.96-3.11,5.3-8.03,6.64-14.03h10.06
	c-1.66,3.37-4,6.35-6.88,8.77C44.04,52.64,40.7,54.43,37.09,55.48L37.09,55.48z"/>
</svg>
