<svg xmlns="http://www.w3.org/2000/svg" xmlns:xlink="http://www.w3.org/1999/xlink" width="69.906" height="59.18" viewBox="0 0 69.906 59.18">
  <defs>
    <style>
      .cls-1 {
        fill-rule: evenodd;
        filter: url(#filter);
      }
    </style>
    <filter id="filter" x="925.375" y="1394.94" width="69.906" height="59.18" filterUnits="userSpaceOnUse">
      <feFlood result="flood" flood-color="#373737"/>
      <feComposite result="composite" operator="in" in2="SourceGraphic"/>
      <feBlend result="blend" in2="SourceGraphic"/>
    </filter>
  </defs>
  <path class="cls-1" d="M992.257,1434.9a0.72,0.72,0,0,1-.513-1.23,3.037,3.037,0,0,0,.888-2.15,3,3,0,0,0-.888-2.14l-1.691-1.69a3.017,3.017,0,0,0-4.284,0,0.726,0.726,0,0,1-1.239-.52,3.034,3.034,0,0,0-3.03-3.03h-0.044v-25.75a3.461,3.461,0,0,0-3.457-3.46H928.822a3.461,3.461,0,0,0-3.457,3.46v38.44a3.468,3.468,0,0,0,3.457,3.46h36.5v0.04a3.034,3.034,0,0,0,3.03,3.03,0.725,0.725,0,0,1,.513,1.24,3.033,3.033,0,0,0,0,4.29l1.691,1.69a3.035,3.035,0,0,0,4.284,0,0.723,0.723,0,0,1,1.239.51,3.034,3.034,0,0,0,3.03,3.03H981.5a3.034,3.034,0,0,0,3.03-3.03,0.723,0.723,0,0,1,1.239-.51,3.035,3.035,0,0,0,4.284,0l1.691-1.69a3.034,3.034,0,0,0,0-4.29,0.726,0.726,0,0,1,.513-1.24,3.034,3.034,0,0,0,3.031-3.03v-2.4A3.034,3.034,0,0,0,992.257,1434.9Zm-64.587-36.51a1.157,1.157,0,0,1,1.152-1.16H978a1.157,1.157,0,0,1,1.153,1.16v1.63l-25,20.85a1.146,1.146,0,0,1-1.478,0l-25-20.85v-1.63Zm1.152,39.59a1.155,1.155,0,0,1-1.152-1.15v-33.8l23.527,19.61a3.454,3.454,0,0,0,4.427,0l23.528-19.61v21.11h-0.044a3.034,3.034,0,0,0-3.03,3.03,0.728,0.728,0,0,1-1.239.52,3.017,3.017,0,0,0-4.284,0l-1.691,1.69a3.033,3.033,0,0,0,0,4.29,0.72,0.72,0,0,1-.513,1.23,3.036,3.036,0,0,0-3.03,3.04v0.04h-36.5Zm64.161,2.35a0.73,0.73,0,0,1-.725.73,3.03,3.03,0,0,0-2.143,5.17,0.731,0.731,0,0,1,0,1.03l-1.691,1.69a0.73,0.73,0,0,1-1.025,0,3.032,3.032,0,0,0-5.174,2.14,0.73,0.73,0,0,1-.724.73h-2.392a0.73,0.73,0,0,1-.725-0.73,3.032,3.032,0,0,0-5.173-2.14,0.73,0.73,0,0,1-1.025,0l-1.691-1.69a0.729,0.729,0,0,1,0-1.03,3.031,3.031,0,0,0-2.143-5.17,0.73,0.73,0,0,1-.725-0.73v-2.39a0.73,0.73,0,0,1,.725-0.73,3.031,3.031,0,0,0,2.143-5.17,0.729,0.729,0,0,1,0-1.03l1.691-1.69a0.73,0.73,0,0,1,1.025,0,3.035,3.035,0,0,0,5.173-2.15,0.721,0.721,0,0,1,.725-0.72H981.5a0.721,0.721,0,0,1,.724.72,3.033,3.033,0,0,0,5.174,2.15,0.73,0.73,0,0,1,1.025,0l1.691,1.69a0.731,0.731,0,0,1,0,1.03,3.031,3.031,0,0,0,2.143,5.17,0.73,0.73,0,0,1,.725.73v2.39Zm-12.679-8.5a7.305,7.305,0,1,0,7.3,7.3A7.311,7.311,0,0,0,980.3,1431.83Zm0,12.3a5,5,0,1,1,5-5A5,5,0,0,1,980.3,1444.13Z" transform="translate(-925.375 -1394.94)"/>
</svg>
