<?xml version="1.0" encoding="utf-8"?>
<!-- Generator: Adobe Illustrator 24.0.2, SVG Export Plug-In . SVG Version: 6.00 Build 0)  -->
<svg version="1.1" id="Layer_1" xmlns="http://www.w3.org/2000/svg" xmlns:xlink="http://www.w3.org/1999/xlink" x="0px" y="0px"
	 viewBox="0 0 47.82 47.82" style="enable-background:new 0 0 47.82 47.82;" xml:space="preserve">
<style type="text/css">
	.st0{fill:#373737;}
	.st1{fill:#5B5B5C;}
</style>
<g>
	<path class="st0" d="M1.04,47.82C0.47,47.82,0,47.35,0,46.77c0-0.58,0.47-1.04,1.04-1.04h2.89V16.81c0-0.58,0.47-1.04,1.04-1.04
		h5.71l2.59-4.32c1.32-2.19,3.74-3.57,6.3-3.57h10.97l7.58-7.58C38.34,0.11,38.61,0,38.89,0s0.54,0.11,0.74,0.31l5.52,5.52
		c0.4,0.4,0.4,1.08,0,1.48l-8.46,8.46h6.14c0.58,0,1.04,0.47,1.04,1.04v28.91h2.89c0.58,0,1.04,0.47,1.04,1.04
		c0,0.58-0.47,1.04-1.04,1.04H1.04V47.82z M41.79,45.72V17.86H34.6c0,0-4.88,4.87-4.9,4.9v8.24c0,0.43-0.26,0.81-0.65,0.97
		c-0.11,0.05-0.23,0.07-0.36,0.07c-0.02,0-0.11,0-0.13-0.01c-0.06,0-0.15-0.02-0.23-0.05c-0.23-0.1-0.33-0.16-0.42-0.25l-0.83-0.83
		l-0.83,0.83c-0.2,0.2-0.47,0.31-0.74,0.31c-0.28,0-0.54-0.11-0.75-0.31l-0.83-0.83l-0.83,0.83c-0.2,0.2-0.47,0.31-0.74,0.31
		c-0.28,0-0.54-0.11-0.74-0.31l-0.85-0.85l-0.83,0.83c-0.2,0.2-0.47,0.31-0.74,0.31c-0.13,0-0.27-0.02-0.4-0.07
		c-0.39-0.16-0.65-0.54-0.65-0.97V17.86H6.03v27.86H41.79z M29.43,15.77c0.43,0,0.81,0.26,0.97,0.65c0.16,0.39,0.07,0.85-0.22,1.14
		l-2.76,2.76c-0.12,0.12-0.18,0.27-0.18,0.44s0.06,0.32,0.18,0.44c0.12,0.12,0.27,0.18,0.44,0.18c0.1,0,0.2-0.02,0.29-0.07
		c0.06-0.04,0.11-0.07,0.15-0.11L40.57,8.94L36.54,4.9L33.55,7.9h2.21c0.58,0,1.04,0.47,1.04,1.04c0,0.58-0.47,1.04-1.04,1.04H19.6
		c-1.84,0-3.57,0.98-4.51,2.55l-1.94,3.24C13.15,15.77,29.43,15.77,29.43,15.77z"/>
	<path class="st1" d="M26.12,22.5c0.12,0.12,0.25,0.22,0.38,0.32c0.4,0.27,0.88,0.4,1.35,0.4l0,0v5.89l-0.23-0.23
		c-0.31-0.31-0.81-0.31-1.12,0l-1.02,1.02l-1.01-1.02c-0.15-0.15-0.34-0.23-0.55-0.23l0,0c-0.21,0-0.4,0.09-0.55,0.23l-1.02,1.02
		l-1.03-1.02c-0.07-0.07-0.17-0.13-0.26-0.17l0,0c-0.1-0.04-0.2-0.06-0.29-0.06l0,0c-0.04,0-0.07,0.01-0.11,0.02
		c-0.06,0.01-0.12,0.01-0.18,0.04c-0.1,0.04-0.18,0.1-0.26,0.17l-0.23,0.23v-11.5h7.55l-1.41,1.41c-0.47,0.47-0.72,1.08-0.72,1.74
		C25.41,21.42,25.65,22.03,26.12,22.5L26.12,22.5z"/>
	<path class="st0" d="M9.21,27.61c-0.53,0-0.97-0.43-0.97-0.97v-4.33c0-0.53,0.43-0.97,0.97-0.97h5.77c0.53,0,0.97,0.43,0.97,0.97
		v4.33c0,0.53-0.43,0.97-0.97,0.97C14.98,27.61,9.21,27.61,9.21,27.61z M14.02,25.67v-2.39h-3.84v2.39H14.02z"/>
	<path class="st0" d="M33.39,41.52c-0.53,0-0.97-0.43-0.97-0.97s0.43-0.97,0.97-0.97h5.77c0.53,0,0.97,0.43,0.97,0.97
		s-0.43,0.97-0.97,0.97H33.39z"/>
	<path class="st0" d="M36.27,44.4c-0.53,0-0.97-0.43-0.97-0.97s0.43-0.97,0.97-0.97h2.88c0.53,0,0.97,0.43,0.97,0.97
		s-0.43,0.97-0.97,0.97H36.27z"/>
</g>
</svg>
