<?xml version="1.0" encoding="utf-8"?>
<!-- Generator: Adobe Illustrator 24.0.2, SVG Export Plug-In . SVG Version: 6.00 Build 0)  -->
<svg version="1.1" id="Isolation_Mode" xmlns="http://www.w3.org/2000/svg" xmlns:xlink="http://www.w3.org/1999/xlink" x="0px"
	 y="0px" viewBox="0 0 72.47 23.99" style="enable-background:new 0 0 72.47 23.99;" xml:space="preserve" >
<style type="text/css" fill="white">
	.st0{fill:white;}
	.st1{fill-rule:evenodd;clip-rule:evenodd;fill:white;}
	.st2{fill-rule:evenodd;clip-rule:evenodd;fill:white;}
	.st3{fill:white;}
	.st4{fill:white;}
</style>
<g>
	<path class="st0" d="M69.23,20.57c0,0.29-0.1,0.54-0.3,0.74c-0.2,0.2-0.45,0.3-0.76,0.3c-0.3,0-0.55-0.1-0.74-0.29
		c-0.2-0.19-0.29-0.44-0.29-0.75h0.45c0,0.19,0.06,0.33,0.16,0.45c0.11,0.11,0.26,0.17,0.44,0.17c0.16,0,0.29-0.05,0.4-0.16
		c0.11-0.11,0.17-0.23,0.17-0.39c0-0.26-0.18-0.45-0.53-0.57l-0.36-0.12c-0.19-0.07-0.34-0.17-0.45-0.32
		c-0.11-0.15-0.16-0.32-0.16-0.51c0-0.25,0.09-0.46,0.27-0.63c0.18-0.18,0.41-0.26,0.67-0.26c0.25,0,0.47,0.08,0.65,0.26
		c0.18,0.17,0.28,0.37,0.28,0.6l-0.45,0.01c-0.01-0.14-0.06-0.25-0.15-0.33c-0.09-0.08-0.2-0.12-0.34-0.12
		c-0.13,0-0.24,0.04-0.34,0.13c-0.09,0.09-0.14,0.19-0.14,0.32c0,0.23,0.16,0.39,0.47,0.5c0.24,0.08,0.41,0.14,0.49,0.18
		c0.09,0.04,0.18,0.09,0.26,0.15C69.13,20.08,69.23,20.29,69.23,20.57"/>
	<path class="st1" d="M70.58,11.29c-0.2,0.19-0.29,0.43-0.29,0.7c0,0.28,0.1,0.51,0.29,0.7c0.2,0.19,0.44,0.29,0.72,0.29
		c0.28,0,0.52-0.1,0.72-0.29c0.2-0.19,0.29-0.43,0.29-0.7c0-0.28-0.1-0.51-0.29-0.7C71.81,11.1,71.58,11,71.3,11
		C71.02,11,70.78,11.1,70.58,11.29 M72.13,12.81c-0.23,0.23-0.51,0.34-0.83,0.34c-0.33,0-0.6-0.11-0.83-0.34
		c-0.23-0.22-0.34-0.5-0.34-0.82s0.11-0.59,0.35-0.81c0.23-0.22,0.51-0.33,0.83-0.33c0.33,0,0.6,0.11,0.83,0.33
		c0.23,0.22,0.35,0.5,0.35,0.81C72.47,12.31,72.36,12.58,72.13,12.81 M71.52,11.55c-0.06-0.03-0.15-0.05-0.28-0.05h-0.19v0.46h0.2
		c0.1,0,0.17-0.01,0.22-0.03c0.08-0.03,0.13-0.1,0.13-0.2C71.6,11.65,71.58,11.58,71.52,11.55 M71.27,11.35
		c0.16,0,0.28,0.01,0.35,0.05c0.13,0.05,0.2,0.16,0.2,0.32c0,0.11-0.04,0.2-0.13,0.25c-0.04,0.03-0.11,0.05-0.19,0.06
		c0.1,0.02,0.17,0.06,0.22,0.12c0.05,0.07,0.07,0.13,0.07,0.19v0.09c0,0.03,0,0.06,0,0.09c0,0.03,0.01,0.06,0.01,0.07l0.01,0.02
		h-0.21c0-0.01,0-0.01,0-0.01c0,0,0-0.01,0-0.01l-0.01-0.05v-0.1c0-0.15-0.04-0.24-0.12-0.29c-0.05-0.03-0.13-0.04-0.25-0.04h-0.18
		v0.5h-0.23v-1.26H71.27z"/>
	<path class="st2" d="M48.79,20.06H45.8c0,0.3,0.13,0.57,0.38,0.79c0.26,0.22,0.55,0.33,0.88,0.33c0.25,0,0.48-0.07,0.7-0.2
		c0.22-0.14,0.37-0.31,0.46-0.51h0.48c-0.14,0.35-0.35,0.62-0.65,0.83c-0.29,0.2-0.62,0.3-0.98,0.3c-0.47,0-0.88-0.17-1.22-0.5
		c-0.34-0.33-0.51-0.73-0.51-1.2c0-0.47,0.17-0.87,0.5-1.2c0.33-0.33,0.74-0.49,1.23-0.49c0.37,0,0.7,0.11,1.01,0.32
		c0.31,0.21,0.51,0.49,0.62,0.82c0.04,0.12,0.06,0.23,0.07,0.33C48.78,19.77,48.79,19.9,48.79,20.06 M48.34,19.67
		c-0.08-0.31-0.24-0.56-0.47-0.75c-0.23-0.18-0.5-0.28-0.8-0.28c-0.31,0-0.58,0.09-0.81,0.28c-0.23,0.19-0.38,0.43-0.45,0.75H48.34z
		"/>
	<polygon class="st2" points="52.37,21.53 51.84,21.53 50.96,20.23 50.09,21.53 49.56,21.53 50.69,19.88 49.56,18.29 50.09,18.29 
		50.96,19.53 51.84,18.29 52.37,18.29 51.23,19.88 	"/>
	<path class="st2" d="M56.76,19.9c0,0.48-0.17,0.89-0.51,1.21c-0.34,0.33-0.76,0.49-1.27,0.49c-0.55,0-0.97-0.22-1.25-0.67v1.73
		h-0.46v-4.38h0.43v0.54c0.13-0.19,0.31-0.34,0.54-0.45c0.23-0.11,0.48-0.16,0.75-0.16c0.5,0,0.91,0.16,1.26,0.48
		C56.59,19.03,56.76,19.43,56.76,19.9 M56.31,19.92c0-0.36-0.13-0.66-0.38-0.9c-0.25-0.25-0.56-0.37-0.92-0.37h-0.07
		c-0.36,0-0.65,0.12-0.89,0.37c-0.23,0.24-0.35,0.54-0.35,0.9c0,0.35,0.12,0.65,0.37,0.9c0.25,0.25,0.56,0.37,0.93,0.37
		c0.36,0,0.67-0.12,0.93-0.37C56.18,20.57,56.31,20.27,56.31,19.92"/>
	<path class="st0" d="M59.26,18.64c-0.24,0-0.45,0.09-0.64,0.27c-0.19,0.18-0.29,0.38-0.29,0.6v0.04v1.97h-0.45v-3.24h0.43v0.46
		c0.19-0.35,0.49-0.53,0.9-0.53h0.04V18.64z"/>
	<path class="st2" d="M63.49,20.06H60.5c0,0.3,0.13,0.57,0.38,0.79c0.25,0.22,0.55,0.33,0.88,0.33c0.25,0,0.48-0.07,0.7-0.2
		c0.22-0.14,0.37-0.31,0.46-0.51h0.48c-0.14,0.35-0.35,0.62-0.65,0.83c-0.29,0.2-0.62,0.3-0.99,0.3c-0.47,0-0.88-0.17-1.22-0.5
		c-0.34-0.33-0.51-0.73-0.51-1.2c0-0.47,0.17-0.87,0.5-1.2c0.34-0.33,0.75-0.49,1.23-0.49c0.37,0,0.7,0.11,1.01,0.32
		c0.3,0.21,0.51,0.49,0.62,0.82c0.04,0.12,0.06,0.23,0.07,0.33C63.49,19.77,63.49,19.9,63.49,20.06 M63.04,19.67
		c-0.08-0.31-0.24-0.56-0.46-0.75c-0.23-0.18-0.5-0.28-0.81-0.28c-0.31,0-0.58,0.09-0.81,0.28c-0.23,0.19-0.38,0.43-0.46,0.75H63.04
		z"/>
	<path class="st0" d="M66.4,20.57c0,0.29-0.09,0.54-0.29,0.74c-0.2,0.2-0.45,0.3-0.76,0.3c-0.3,0-0.55-0.1-0.74-0.29
		c-0.19-0.19-0.29-0.44-0.29-0.75h0.45c0,0.19,0.06,0.33,0.16,0.45c0.11,0.11,0.26,0.17,0.44,0.17c0.16,0,0.29-0.05,0.4-0.16
		c0.11-0.11,0.17-0.23,0.17-0.39c0-0.26-0.17-0.45-0.53-0.57l-0.36-0.12c-0.19-0.07-0.34-0.17-0.46-0.32
		c-0.11-0.15-0.16-0.32-0.16-0.51c0-0.25,0.09-0.46,0.27-0.63c0.19-0.18,0.41-0.26,0.67-0.26c0.25,0,0.47,0.08,0.65,0.26
		c0.18,0.17,0.28,0.37,0.28,0.6l-0.46,0.01c-0.01-0.14-0.06-0.25-0.15-0.33c-0.09-0.08-0.2-0.12-0.34-0.12
		c-0.13,0-0.24,0.04-0.34,0.13c-0.09,0.09-0.14,0.19-0.14,0.32c0,0.23,0.15,0.39,0.46,0.5c0.24,0.08,0.4,0.14,0.49,0.18
		c0.09,0.04,0.18,0.09,0.26,0.15C66.3,20.08,66.4,20.29,66.4,20.57"/>
	<rect x="20.48" y="19.73" class="st0" width="23.48" height="0.26"/>
	<path class="st1" d="M41.3,10.93l1.48-0.01l-0.63,0.88c0.1-0.08,0.2-0.17,0.32-0.25c0.67-0.49,1.07-0.71,1.36-0.71
		c0.33,0,0.59,0.1,0.78,0.28c0.19,0.19,0.29,0.44,0.29,0.77c0,0.19-0.05,0.42-0.16,0.66c-0.1,0.24-0.25,0.49-0.44,0.76l-0.02,0.03
		l-0.03,0.01c-0.01,0-0.13,0.04-0.27,0.04c-0.26,0-0.37-0.11-0.43-0.2c-0.13-0.22-0.04-0.58,0.27-1.1c0.07-0.17,0.11-0.31,0.11-0.43
		c0-0.09,0-0.19-0.05-0.24c-0.02-0.02-0.03-0.03-0.04-0.05c-0.04-0.04-0.04-0.05-0.07-0.05c-0.26,0.04-0.55,0.2-0.98,0.52
		c-0.47,0.35-0.95,0.81-1.44,1.38c-0.36,0.42-0.7,0.89-1,1.37c-0.3,0.49-0.58,1.02-0.82,1.6l-0.02,0.06l-1.44,0.02L41.3,10.93z"/>
	<path class="st3" d="M46.51,16.46c-0.27,0-0.64-0.04-0.87-0.25c-0.33-0.26-0.37-0.63-0.37-0.93c0-0.22,0.04-0.46,0.13-0.7
		c0.09-0.24,0.21-0.47,0.38-0.69l0.94-1.26c0.14-0.18,0.25-0.36,0.33-0.54c0.08-0.18,0.12-0.32,0.12-0.44c0-0.09,0-0.19-0.05-0.24
		l-0.04-0.04c-0.04-0.05-0.04-0.05-0.07-0.05c-0.26,0.04-0.55,0.2-0.98,0.52c-0.46,0.35-0.95,0.81-1.44,1.38
		c-0.36,0.42-0.7,0.89-1,1.37c-0.31,0.48-0.58,1.02-0.83,1.6l-0.02,0.06l-1.44,0.02l2.86-4.72l0.18,0.05l-0.09,1.46
		c0.58-0.75,0.81-1.03,1.46-1.51c0.67-0.49,1.07-0.7,1.36-0.7c0.33,0,0.6,0.1,0.78,0.28c0.19,0.19,0.28,0.44,0.28,0.77
		c0,0.19-0.06,0.42-0.16,0.66c-0.1,0.24-0.25,0.49-0.44,0.76l-0.89,1.23c-0.04,0.05-0.08,0.1-0.11,0.15
		c-0.12,0.15-0.2,0.26-0.27,0.41c-0.08,0.25-0.08,0.45,0.03,0.59c0.13,0.18,0.38,0.22,0.46,0.22c0.27,0,0.84-0.25,1.58-0.96
		c0.19-0.19,0.33-0.3,0.44-0.4c0.28-0.25,0.42-0.38,1.12-1.24l0.07-0.09l0.19,0.21l-0.05,0.06c-0.23,0.29-0.41,0.52-0.55,0.7
		c-0.52,0.66-0.52,0.66-1.08,1.25l-0.04,0.04C47.75,16.2,46.99,16.46,46.51,16.46"/>
	<path class="st3" d="M66.53,16.5c-0.07,0-0.13,0-0.2-0.01c-0.69-0.04-1.01-0.14-1.4-0.43c-0.4-0.3-0.61-0.71-0.61-1.23
		c0-0.38,0.12-0.7,0.34-0.95c0.03-0.04,0.06-0.07,0.09-0.1c0.14-0.17,0.23-0.27,0.53-0.27c0.22,0,0.39,0.04,0.53,0.23
		c0.12,0.26,0.12,0.47,0,0.66c-0.19,0.3-0.65,0.4-0.78,0.42c-0.06,0.04-0.1,0.09-0.13,0.15c-0.03,0.08-0.05,0.17-0.05,0.29
		c0,0.26,0.19,0.47,0.38,0.64c0.19,0.17,0.44,0.25,0.74,0.25c0.39,0,0.85-0.23,1.11-0.46c0.16-0.1,0.24-0.2,0.27-0.34
		c0.1-0.39-0.28-0.98-0.62-1.5c-0.14-0.22-0.58-0.94-0.58-1.33c0-0.45,0.05-0.96,0.69-1.41c0.28-0.18,0.75-0.36,1.23-0.36
		c0.39,0,0.73,0.12,1,0.36c0.25,0.26,0.46,0.52,0.46,0.91c0,0.3-0.05,0.63-0.36,0.8c-0.07,0.04-0.14,0.05-0.22,0.05
		c-0.2,0-0.4-0.11-0.5-0.17l-0.04-0.02l-0.17-0.08l0.17-0.08c0.19-0.1,0.34-0.34,0.37-0.62c0.03-0.26-0.05-0.5-0.21-0.63
		c-0.07-0.07-0.2-0.14-0.54-0.14c-0.04,0-0.07,0-0.11,0c-0.1,0-0.35,0.12-0.54,0.33c-0.11,0.12-0.23,0.32-0.2,0.56
		c0,0.16,0.03,0.26,0.1,0.43c0.02,0.05,0.16,0.3,0.3,0.57c0.42,0.76,0.79,1.47,0.84,1.69c0.08,0.38-0.03,0.79-0.3,1.12
		C67.77,16.27,67.2,16.5,66.53,16.5"/>
	<path class="st1" d="M22.36,16.46c-0.46,0-1.09-0.13-1.48-0.49c-0.35-0.33-0.54-0.75-0.54-1.26c0-0.5,0.15-1.01,0.44-1.51
		c0.22-0.4,0.58-0.99,1.09-1.47l0.08-0.06c0.38-0.3,1.17-0.92,1.99-0.92c0.24,0,0.47,0.06,0.69,0.17c0.28,0.14,0.46,0.43,0.48,0.75
		c0.09,1.65-2.21,2.2-3.5,2.49c-0.02,0.12-0.02,0.21-0.02,0.27c0,0.43,0.11,0.77,0.34,1.01c0.22,0.24,0.52,0.35,0.93,0.35
		c0.59,0,1.24-0.28,2.08-0.9c0.84-0.62,1.69-1.5,2.54-2.6l0.05-0.07l0.24,0.14l-0.06,0.08c-0.98,1.33-1.79,2.3-2.81,3
		C23.89,16.1,23.32,16.46,22.36,16.46 M23.92,11.24c-0.37,0-0.69,0.19-1.22,0.74c-0.52,0.53-0.78,1.08-1,1.72
		c0.78-0.21,1.21-0.43,1.72-0.85c0.54-0.46,0.82-0.9,0.82-1.33c0-0.11-0.03-0.16-0.08-0.21C24.11,11.27,24.03,11.24,23.92,11.24"/>
	<path class="st1" d="M29.67,16.41c-0.27,0-0.64-0.04-0.87-0.25c-0.33-0.26-0.37-0.63-0.37-0.93c0-0.22,0.04-0.45,0.13-0.69
		c0.09-0.24,0.22-0.47,0.37-0.69l0.94-1.26c0.14-0.18,0.25-0.36,0.33-0.54c0.08-0.18,0.12-0.32,0.12-0.44c0-0.08,0-0.19-0.05-0.24
		c-0.02-0.02-0.03-0.03-0.04-0.04c-0.04-0.05-0.05-0.05-0.07-0.05c-0.26,0.04-0.55,0.19-0.98,0.52c-0.46,0.35-0.95,0.82-1.44,1.38
		c-0.37,0.42-0.7,0.89-1,1.37c-0.3,0.48-0.58,1.02-0.82,1.6l-0.02,0.06l-1.44,0.01l3.23-5.34l1.48,0l-0.63,0.88
		c0.1-0.08,0.2-0.17,0.32-0.25c0.67-0.49,1.07-0.7,1.36-0.7c0.33,0,0.6,0.09,0.79,0.28c0.19,0.19,0.29,0.44,0.29,0.77
		c0,0.19-0.05,0.41-0.16,0.66c-0.1,0.23-0.24,0.49-0.44,0.76l-0.88,1.23c-0.04,0.06-0.08,0.1-0.12,0.15
		c-0.12,0.15-0.19,0.26-0.26,0.4c-0.08,0.25-0.08,0.45,0.03,0.6c0.13,0.18,0.38,0.22,0.46,0.22c0.27,0,0.84-0.25,1.58-0.96
		c0.79-0.76,1.64-1.62,2.54-2.75l0.07-0.09l0.19,0.21l-0.05,0.06c-1.24,1.57-2.04,2.44-2.66,3.09
		C30.91,16.15,30.14,16.41,29.67,16.41"/>
	<path class="st3" d="M32.99,16.44c-0.39,0-0.66-0.09-0.84-0.28c-0.2-0.24-0.3-0.44-0.3-0.79c0-0.21,0.05-0.46,0.17-0.76
		c0.11-0.29,0.28-0.62,0.49-0.99l1.47-2.55h-1.53l0.44-0.62h1.44l1.08-1.74l1.44-0.01l-1.09,1.75h1.93l-0.46,0.63h-1.86l-1.76,2.95
		c-0.21,0.36-0.38,0.69-0.5,0.99c-0.12,0.29-0.18,0.51-0.18,0.67c0,0.11,0.02,0.19,0.08,0.24c0.03,0.03,0.07,0.05,0.19,0.05
		c0.53,0,1.05-0.36,1.81-1.02c0.78-0.68,1.6-1.61,2.45-2.77l0.06-0.08l0.27,0.23l-0.05,0.07c-0.94,1.28-1.84,2.3-2.69,3.01
		c-0.8,0.68-1.32,0.97-1.81,1.03C33.16,16.44,33.08,16.44,32.99,16.44"/>
	<path class="st1" d="M50.87,16.46c-0.46,0-1.09-0.13-1.48-0.49c-0.36-0.33-0.54-0.75-0.54-1.26c0-0.5,0.15-1.01,0.44-1.51
		c0.23-0.4,0.59-1,1.09-1.47l0.08-0.06c0.38-0.3,1.17-0.92,1.99-0.92c0.24,0,0.47,0.06,0.69,0.17c0.28,0.14,0.46,0.43,0.48,0.75
		c0.09,1.65-2.21,2.2-3.5,2.49c-0.02,0.12-0.02,0.2-0.02,0.27c0,0.43,0.11,0.77,0.34,1.01c0.22,0.24,0.52,0.35,0.93,0.35
		c0.6,0,1.24-0.28,2.08-0.9c0.84-0.62,1.69-1.5,2.53-2.6l0.05-0.07l0.24,0.14l-0.06,0.08c-0.98,1.33-1.8,2.3-2.81,3
		C52.39,16.1,51.82,16.46,50.87,16.46 M52.42,11.24c-0.37,0-0.69,0.19-1.22,0.74c-0.51,0.53-0.78,1.08-1,1.72
		c0.78-0.21,1.22-0.43,1.72-0.85c0.54-0.46,0.82-0.9,0.82-1.33c0-0.11-0.03-0.16-0.08-0.21C52.61,11.27,52.53,11.24,52.42,11.24"/>
	<path class="st1" d="M58.17,16.41c-0.27,0-0.64-0.04-0.87-0.25c-0.33-0.26-0.37-0.63-0.37-0.93c0-0.22,0.05-0.45,0.13-0.69
		c0.09-0.24,0.21-0.47,0.37-0.69l0.95-1.26c0.14-0.18,0.25-0.36,0.33-0.54c0.08-0.17,0.12-0.32,0.12-0.44c0-0.08,0-0.19-0.05-0.24
		l-0.04-0.04c-0.04-0.05-0.04-0.05-0.07-0.05c-0.26,0.04-0.54,0.19-0.98,0.52c-0.47,0.35-0.95,0.81-1.44,1.38
		c-0.37,0.43-0.71,0.89-1,1.37c-0.3,0.48-0.58,1.02-0.82,1.6l-0.03,0.06l-1.44,0.01l3.23-5.34l1.48,0l-0.63,0.88
		c0.1-0.08,0.2-0.17,0.31-0.25c0.67-0.49,1.07-0.7,1.36-0.7c0.33,0,0.59,0.09,0.78,0.28c0.19,0.18,0.29,0.44,0.29,0.77
		c0,0.19-0.05,0.41-0.16,0.66c-0.1,0.23-0.25,0.49-0.44,0.76l-0.88,1.23c-0.04,0.05-0.08,0.1-0.12,0.15
		c-0.11,0.15-0.2,0.26-0.27,0.41c-0.08,0.25-0.07,0.45,0.03,0.6c0.13,0.18,0.38,0.22,0.46,0.22c0.27,0,0.84-0.25,1.58-0.96
		c0.79-0.76,1.65-1.62,2.55-2.75l0.07-0.09l0.19,0.21l-0.05,0.06c-1.24,1.56-2.04,2.44-2.67,3.09
		C59.41,16.15,58.62,16.41,58.17,16.41"/>
	<path class="st3" d="M61.49,16.44c-0.39,0-0.66-0.09-0.84-0.28c-0.2-0.24-0.3-0.44-0.3-0.79c0-0.21,0.06-0.46,0.18-0.76
		c0.11-0.29,0.27-0.63,0.49-0.99l1.47-2.55h-1.52l0.44-0.62h1.44l1.08-1.74l1.44-0.01l-1.1,1.75h1.93l-0.46,0.63h-1.86l-1.76,2.95
		c-0.21,0.36-0.38,0.69-0.5,0.99c-0.12,0.29-0.18,0.51-0.18,0.67c0,0.11,0.03,0.19,0.08,0.24c0.02,0.02,0.07,0.05,0.19,0.05
		c0.55,0,1.03-0.23,1.81-0.86c0.49-0.4,0.78-0.65,1.44-1.27l0.14-0.13l0.06,0.46l-0.09,0.08c-0.64,0.6-0.96,0.91-1.44,1.31
		c-0.89,0.76-1.46,0.82-1.87,0.87C61.66,16.44,61.58,16.44,61.49,16.44"/>
	<path class="st3" d="M36.59,16.44c-0.39,0-0.66-0.09-0.83-0.28c-0.2-0.24-0.3-0.44-0.3-0.79c0-0.21,0.06-0.46,0.17-0.76
		c0.11-0.29,0.28-0.63,0.49-0.99l1.8-3.17l1.4,0l-2.09,3.57c-0.21,0.36-0.38,0.69-0.5,0.99c-0.12,0.29-0.18,0.51-0.18,0.67
		c0,0.11,0.02,0.19,0.08,0.24c0.02,0.02,0.07,0.05,0.19,0.05c0.53,0,1.04-0.36,1.81-1.02c0.77-0.68,1.6-1.61,2.45-2.77l0.06-0.08
		l0.27,0.23l-0.05,0.07c-0.94,1.28-1.84,2.3-2.69,3.01c-0.8,0.68-1.32,0.97-1.81,1.03C36.76,16.44,36.67,16.44,36.59,16.44"/>
	<path class="st3" d="M39.81,9.17c0,0.4-0.33,0.72-0.74,0.72c-0.41,0-0.74-0.32-0.74-0.72c0-0.4,0.33-0.73,0.74-0.73
		C39.47,8.45,39.81,8.77,39.81,9.17"/>
	<path class="st3" d="M29.22,0.41c-1.59,0.22-6.74,2.2-9.72,10.37c0,0.01-0.01,0.02-0.01,0.03c0.03-0.01,0.05-0.02,0.08-0.02
		l-0.08,0.03l0,0c-1.86,0.53-3.64,0.74-5.19,0.68c0.01,0.03,0.02,0.06,0.02,0.08c-0.02-0.03-0.03-0.06-0.05-0.08
		c0.01,0,0.02,0,0.02,0c-0.76-2.12-2.63-3.72-5.46-3.69c0,0.04,0,0.08,0,0.12C8.83,7.88,8.81,7.84,8.8,7.81c0.01,0,0.03,0,0.04,0
		C8.86,7.43,8.94,7.03,9.1,6.6c0.01-0.04,0.03-0.07,0.04-0.1C8.92,6.48,8.7,6.46,8.5,6.45C8.37,6.93,8.33,7.39,8.37,7.83
		c0.05,0,0.09,0,0.13,0L8.37,7.84c0,0,0-0.01,0-0.01c0,0-0.01,0-0.02,0L7.58,7.94c-4.08,0.69-7.22,4.32-7.55,8.29
		c-0.42,5.13,3.34,8.2,7.86,7.71c0.84-0.09,1.65-0.3,2.4-0.61c6.32-2.25,9.79-10.78,9.96-11.22c0.11-0.27,0.21-0.54,0.32-0.8
		c-0.01,0.01-0.03,0.01-0.04,0.01l0.03-0.02c0,0,0.41-0.94,0.42-0.97c0,0-0.01,0-0.03,0c0.01,0,0.02-0.01,0.04-0.01c0,0,0,0,0,0
		c3.51-8.12,6.8-9.19,8.25-9.57c1.71-0.45,0.93,1.43,0.93,1.43s-2.12,5.52-9.19,8.15c-0.13,0.32-0.27,0.64-0.41,0.98
		c0.13-0.05,0.27-0.09,0.41-0.14c7.06-2.62,9.34-8.19,9.34-8.19S31.88,0.04,29.22,0.41 M8.91,8.55L8.91,8.55
		c2.89-0.07,4.23,1.54,4.83,2.91c0.07,0.01,0.15,0.01,0.22,0.01l-0.19,0.01l0.04,0.15c-0.02-0.06-0.05-0.12-0.07-0.18
		C11.14,11.23,9.28,10.19,8.91,8.55c-0.01,0-0.02,0-0.04,0L8.91,8.55z M12.66,21.18c-1.33,1.08-2.98,1.81-4.77,2
		c-4.52,0.49-7.75-2.07-7.6-6.27c0.14-3.98,3.34-7.48,7.4-8.23l0.77-0.1c0.02,0,0.04,0,0.06,0v0l0.01,0H8.52
		c0.59,1.81,2.67,3.11,5.44,3.48v0l0,0h0c0.24,0.72,0.28,1.26,0.28,1.26c0,3.29-2.83,5.94-6.32,5.94H7.88c0,0-3.44,0.12-3.39-3.11
		c0.05-3.23,3.68-3.82,4.54-3.72c0.9,0.1,1.68,0.4,1.91,1c0,0-0.24,0.25,0,0.48c0.24,0.23,0.84-0.03,0.48-0.58
		c-0.36-0.55-1.51-1.16-2.7-1.12C8,12.24,3.96,12.76,4.1,16.31c0.14,3.55,4.23,3.39,4.23,3.39h0.04c3.49,0,6.32-2.66,6.32-5.93
		c0-0.57-0.07-1.12-0.2-1.65c-0.01,0-0.01,0-0.02,0l0.02-0.01c0,0,0,0.01,0,0.01c1.4,0.12,2.95,0.02,4.55-0.36l0.09,0
		C18.3,13.77,16.13,18.44,12.66,21.18"/>
	<path class="st4" d="M6.61,0h2.3c0,0,0.18-0.03,0.43,0.44l1.18,2.04c0,0,0.15,0.27,0.36,0.29h0.62l-0.74,0.96h-0.41
		c0,0-0.33,0-0.58-0.49l-1.19-2.1c0,0-0.08-0.18-0.33-0.17H5.87L6.61,0z"/>
	<path class="st4" d="M7.2,1.16h1.18l1.39,2.41c0,0,0.12,0.28,0.45,0.34h0.41L9.96,4.78H9.53c0,0-0.28,0.01-0.47-0.34L7.2,1.16z"/>
	<path class="st4" d="M5.87,1.15H7l2.03,3.57c0,0,0.09,0.2,0.32,0.23h0.48L9.12,5.88h-0.4c0,0-0.19,0-0.36-0.32L5.87,1.15z"/>
	<path class="st4" d="M18.01,2.77h-2.48c0,0-0.28-0.01-0.48,0.25l-1.93,2.53c0,0-0.29,0.33,0.23,0.33h2.28l0.74-0.95l-1.05,0
		c0,0-0.22,0.02-0.08-0.16l0.74-0.97c0,0,0.07-0.07,0.29-0.07h1.02L18.01,2.77z"/>
	<path class="st4" d="M19.09,3.74l0.06-0.08h-0.3c0,0-0.05-0.01-0.12,0.08c0,0-0.12,0.15,0,0.15h1c0,0,0.31-0.01,0.13,0.22
		l-1.2,1.57c0,0-0.12,0.21-0.49,0.21H16.3c0,0-0.36-0.03-0.22-0.24l0.55-0.72h1.18l-0.08,0.12h0.32c0,0,0.03,0.01,0.1-0.08
		c0,0,0.17-0.19,0.05-0.2h-1.12c0,0-0.26-0.04-0.15-0.25l1.24-1.6c0,0,0.09-0.15,0.29-0.15h2.04c0,0,0.39-0.01,0.19,0.27l-0.54,0.71
		L19.09,3.74z"/>
	<polygon class="st4" points="11.78,2.77 11.04,3.73 11.94,3.73 10.3,5.88 11.69,5.88 13.33,3.73 14.24,3.73 14.98,2.77 	"/>
</g>
</svg>
