<?xml version="1.0" encoding="utf-8"?>
<!-- Generator: Adobe Illustrator 24.0.2, SVG Export Plug-In . SVG Version: 6.00 Build 0)  -->
<svg version="1.1" id="Layer_1" xmlns="http://www.w3.org/2000/svg" xmlns:xlink="http://www.w3.org/1999/xlink" x="0px" y="0px"
	 viewBox="0 0 36 37" style="enable-background:new 0 0 36 37;" xml:space="preserve">
<style type="text/css">
	.st0{fill:#373737;}
	.st1{fill:#5B5B5B;}
</style>
<g>
	<path class="st0" d="M36,0H0v2.41L13.59,16L5,24.59L2.41,22H0v13h12.32l1.09,2h15.01l1.86-1.86L30.19,35H36V0z M2,33v-8.59l3,3l2-2
		l0.19,0.19l4.03,7.4H2z M27.59,35H14.59L8.88,24.52L8.4,24.02l6.6-6.6l0.52,0.52l6.15,1.02l8.27,4.6c-0.81,0.5-3,1.32-6.31-1.34
		l-0.7-0.56l-2.2,2.2l7,11L27.59,35z M34,33h-5.09l-5.3-8.34c4.93,3.11,8.07,0.08,8.1,0.04L32,24.41v-2l-9.66-5.37l-5.85-0.98
		L2.41,2H14v7h2.1L22,7.82V2h12V33z"/>
	<polygon class="st1" points="16,2 20,2 20,6.18 16,6.98 	"/>
</g>
</svg>
