<?xml version="1.0" encoding="utf-8"?>
<!-- Generator: Adobe Illustrator 24.0.2, SVG Export Plug-In . SVG Version: 6.00 Build 0)  -->
<svg version="1.1" id="Layer_1" xmlns="http://www.w3.org/2000/svg" xmlns:xlink="http://www.w3.org/1999/xlink" x="0px" y="0px"
	 viewBox="0 0 39.11 55" style="enable-background:new 0 0 39.11 55;" xml:space="preserve">
<style type="text/css">
	.st0{fill:#373737;}
	.st1{fill:#5B5B5B;}
</style>
<g>
	<path class="st0" d="M19.55,0c-0.42,0-0.86,0.01-1.29,0.04C8.48,0.67,0.46,8.84,0.02,18.63c-0.19,4.09,0.88,8.07,3.06,11.49
		c0.01,0.01,0.03,0.03,0.03,0.05c0.12,0.18,0.25,0.38,0.34,0.59l10.06,20.47c1.14,2.31,3.45,3.76,6.03,3.76l0,0
		c2.59,0,4.9-1.44,6.03-3.76l10.06-20.47c0.03-0.07,0.07-0.14,0.11-0.21l1.44-2.56c0.11-0.21,0.21-0.38,0.29-0.57
		c1.09-2.48,1.64-5.12,1.64-7.85C39.11,8.77,30.33,0,19.55,0z M34.96,26.31c-0.04,0.11-0.1,0.22-0.16,0.34l-1.44,2.56
		c-0.07,0.11-0.12,0.22-0.18,0.33L23.13,50.01c-0.68,1.4-2.02,2.23-3.57,2.23c-1.56,0-2.89-0.83-3.57-2.23L5.91,29.54l0,0
		c-0.16-0.33-0.34-0.63-0.55-0.93c-1.87-2.94-2.78-6.35-2.63-9.86C3.11,10.32,10.01,3.3,18.41,2.76c0.37-0.03,0.75-0.04,1.12-0.04
		c9.28,0,16.83,7.55,16.83,16.83C36.37,21.9,35.9,24.18,34.96,26.31z"/>
	<path class="st0" d="M19.56,10.26c-5.24,0-9.49,4.25-9.49,9.5c0,5.24,4.25,9.51,9.49,9.51c5.24,0,9.5-4.25,9.5-9.49
		S24.8,10.26,19.56,10.26z"/>
	<circle class="st1" cx="19.56" cy="19.76" r="2.84"/>
</g>
</svg>
