<?xml version="1.0" encoding="utf-8"?>
<!-- Generator: Adobe Illustrator 24.0.2, SVG Export Plug-In . SVG Version: 6.00 Build 0)  -->
<svg version="1.1" id="Layer_1" xmlns="http://www.w3.org/2000/svg" xmlns:xlink="http://www.w3.org/1999/xlink" x="0px" y="0px"
	 viewBox="0 0 75.44 74.89" style="enable-background:new 0 0 75.44 74.89;" xml:space="preserve">
<style type="text/css">
	.st0{clip-path:url(#SVGID_2_);}
</style>
<g>
	<defs>
		<rect id="SVGID_1_" y="0" width="75.44" height="74.89"/>
	</defs>
	<clipPath id="SVGID_2_">
		<use xlink:href="#SVGID_1_"  style="overflow:visible;"/>
	</clipPath>
	<path class="st0" d="M10.6,54.01c-0.65,0.58-1.28,1.18-1.89,1.81c-0.18,0.18-0.35,0.37-0.53,0.55c-0.45,0.47-0.88,0.96-1.31,1.45
		c-0.19,0.22-0.38,0.43-0.56,0.64c-0.5,0.61-0.99,1.23-1.46,1.87c-0.22,0.29-0.42,0.59-0.63,0.88c-0.33,0.47-0.65,0.95-0.97,1.44
		c-0.17,0.26-0.34,0.51-0.5,0.77c-0.01,0.01-0.02,0.03-0.02,0.04c0,0.01,0,0.01-0.01,0.02C1.71,65.17,0.79,66.93,0,68.77l2.27,0.97
		c0.28-0.64,0.59-1.26,0.89-1.88l0.88,5.31c0.1,0.6,0.61,1.03,1.22,1.03h4.95c0.16,0,0.31-0.03,0.46-0.09l5.88-2.35l8.33,1.19
		c0.57,0.08,1.11-0.23,1.32-0.76l2.32-5.81l9.55-5.97c0.31-0.19,0.52-0.51,0.57-0.88l1.24-8.66c0.09-0.63-0.31-1.22-0.92-1.38
		l-4.76-1.19l-2.92-1.84c0.2-0.04,0.41-0.08,0.61-0.11c0.65-0.11,1.31-0.21,1.97-0.29c0.32-0.04,0.64-0.08,0.96-0.11
		c0.65-0.06,1.3-0.11,1.95-0.14c0.34-0.02,0.68-0.03,1.02-0.04c0.67-0.01,1.35-0.01,2.03,0.01c0.25,0.01,0.5,0.01,0.75,0.03
		c0.02,0,0.03,0,0.05,0c0.69,0.03,1.38,0.09,2.07,0.16c0.26,0.03,0.53,0.05,0.8,0.08c0.68,0.08,1.36,0.19,2.04,0.31
		c0.27,0.05,0.54,0.08,0.81,0.14c0.71,0.14,1.4,0.31,2.1,0.49c0.9,0.23,1.78,0.49,2.66,0.78c0.38,0.13,0.76,0.26,1.14,0.4
		c0.5,0.18,1,0.37,1.5,0.58c0.38,0.16,0.76,0.33,1.13,0.5c0.14,0.06,0.27,0.13,0.41,0.19l-4.59,1.31c-0.35,0.1-0.65,0.35-0.79,0.69
		c-0.15,0.34-0.14,0.72,0.03,1.05l0.84,1.68l-4.32,4.32c-0.48,0.48-0.48,1.26,0,1.75l4.95,4.95c0.26,0.26,0.62,0.4,1,0.36
		c0.37-0.04,0.7-0.24,0.91-0.54l4.58-6.87h3.05v4.23l-8.03,4.59c-0.1,0.05-0.18,0.12-0.26,0.2l-2.47,2.47
		c-0.42,0.42-0.48,1.07-0.15,1.56l2.47,3.71l2.06-1.37l-1.91-2.87l1.64-1.64l8.51-4.86c0.38-0.22,0.62-0.63,0.62-1.07v-6.18
		c0-0.68-0.55-1.24-1.24-1.24h-4.95c-0.41,0-0.8,0.21-1.03,0.55l-4.11,6.16l-3.01-3l4.07-4.07c0.38-0.38,0.47-0.95,0.23-1.43
		l-0.57-1.14l5.68-1.62c0.05,0.03,0.1,0.05,0.15,0.08c0.19,0.11,0.37,0.24,0.56,0.35c0.6,0.37,1.2,0.74,1.78,1.14
		c0.53,0.37,1.05,0.75,1.57,1.13c0.14,0.1,0.28,0.2,0.42,0.3c4.2,3.27,7.72,7.36,10.32,12.05l0,0c0,0,0,0,0,0.01l2.16-1.2
		c-1.43-2.57-3.11-4.95-4.99-7.12c-0.04-0.04-0.07-0.08-0.11-0.12c-0.59-0.67-1.19-1.33-1.82-1.96c-0.13-0.13-0.28-0.26-0.41-0.39
		c-0.54-0.53-1.08-1.05-1.64-1.54c-0.21-0.19-0.44-0.36-0.66-0.55c-0.5-0.42-1-0.84-1.52-1.24c-0.28-0.22-0.57-0.42-0.86-0.63
		c-0.02-0.01-0.04-0.03-0.05-0.04l2.38-5.71l3.7-8.01l3.7-7.4c0.15-0.3,0.17-0.65,0.06-0.97c-0.11-0.32-0.35-0.58-0.66-0.71
		l-0.33-0.15l2.17-4.35c0.28-0.56,0.1-1.24-0.42-1.58l-3.71-2.47l-3.71-2.47c-0.29-0.2-0.66-0.26-1-0.17
		c-0.34,0.09-0.63,0.33-0.79,0.64l-2.9,5.8l-0.44-0.19c-0.61-0.27-1.31-0.01-1.61,0.58L56.1,31.6l-3.71,7.42
		c-0.01,0.01-0.01,0.03-0.01,0.04c-0.01,0.01-0.02,0.02-0.02,0.03l-2.09,4.88l-1.74-9.56c-0.11-0.59-0.62-1.02-1.22-1.02h-1.54
		l-2.22-7.76c-0.15-0.53-0.64-0.9-1.19-0.9h-0.19l-2.3-13.81c-0.01-0.04-0.03-0.07-0.04-0.11c0.77-0.42,1.29-1.22,1.29-2.16V6.18
		c0-1.36-1.11-2.47-2.47-2.47V0h-2.47v3.71c-1.36,0-2.47,1.11-2.47,2.47v2.47c0,0.94,0.53,1.74,1.29,2.16
		c-0.01,0.04-0.03,0.07-0.04,0.11l-2.3,13.81h-0.19c-0.55,0-1.04,0.37-1.19,0.9l-2.22,7.76h-1.54c-0.6,0-1.11,0.43-1.22,1.02
		l-1.78,9.8l-4.51-11.27l-4.95-12.37c-0.01-0.02-0.02-0.03-0.03-0.04c-0.05-0.12-0.12-0.22-0.21-0.32
		c-0.02-0.02-0.04-0.05-0.06-0.07c-0.01-0.01-0.02-0.03-0.03-0.04L3.61,10.21c-0.35-0.31-0.84-0.4-1.28-0.22
		c-0.43,0.17-0.73,0.58-0.77,1.05L0.32,25.87c0,0.02,0,0.03,0,0.05c0,0.03,0,0.06,0,0.09c0,0.13,0.03,0.25,0.07,0.37
		c0.01,0.02,0,0.03,0.01,0.05L5.35,38.8l5.87,14.67c-0.09,0.08-0.18,0.16-0.28,0.24C10.83,53.81,10.71,53.9,10.6,54.01 M30.96,43.99
		c1.52-1.98,3.89-3.18,6.46-3.18c2.38,0,4.59,1.03,6.11,2.76c-0.12-0.01-0.24-0.02-0.36-0.03c-0.35-0.04-0.7-0.07-1.05-0.1
		c-0.43-0.04-0.87-0.06-1.3-0.09c-0.23-0.01-0.46-0.03-0.69-0.04c-0.24-0.01-0.48-0.01-0.73-0.01c-0.25-0.01-0.49-0.03-0.74-0.03
		c-0.23,0-0.47,0.02-0.7,0.03c-0.11,0-0.22,0-0.33,0c-0.43,0.01-0.86,0.04-1.29,0.06c-0.44,0.02-0.87,0.05-1.3,0.08
		c-0.19,0.02-0.39,0.03-0.59,0.05c-0.4,0.04-0.81,0.1-1.21,0.15c-0.36,0.05-0.72,0.08-1.07,0.14c-0.19,0.03-0.39,0.07-0.58,0.1
		C31.38,43.93,31.17,43.95,30.96,43.99 M33.41,50.67l3.86,0.97l-1,6.98l-9.4,5.88c-0.22,0.14-0.4,0.35-0.49,0.59l-2.11,5.28
		l-7.69-1.1c-0.22-0.03-0.43-0.01-0.63,0.08l-5.96,2.39H6.31l-1.23-7.36c0.01-0.02,0.03-0.04,0.04-0.06
		c0.38-0.61,0.78-1.2,1.19-1.78c0.2-0.28,0.39-0.55,0.6-0.82c0.39-0.52,0.78-1.03,1.19-1.53c0.19-0.23,0.38-0.45,0.57-0.68
		c0.43-0.5,0.87-0.99,1.32-1.46c0.16-0.17,0.33-0.35,0.5-0.52c0.57-0.58,1.16-1.15,1.77-1.69c0.09-0.08,0.18-0.15,0.27-0.23
		c0.4-0.35,0.82-0.69,1.24-1.02c0.63-0.51,1.27-0.99,1.92-1.46c0.21-0.15,0.42-0.31,0.64-0.46c0.69-0.47,1.39-0.91,2.1-1.33
		c0.19-0.11,0.37-0.23,0.56-0.34c0.87-0.5,1.77-0.97,2.68-1.4c0.07-0.03,0.14-0.06,0.21-0.1c0.92-0.43,1.85-0.82,2.8-1.18
		c0.5-0.19,1.01-0.35,1.52-0.52c0.56-0.19,1.13-0.36,1.7-0.52l5.14,3.25C33.16,50.58,33.28,50.64,33.41,50.67 M52.28,45.55
		l1.83-4.28l8.92,4.46l-1.74,4.18c-0.26-0.17-0.54-0.32-0.81-0.48c-0.27-0.16-0.54-0.33-0.82-0.49c-0.11-0.06-0.21-0.13-0.32-0.19
		c-0.03-0.02-0.06-0.04-0.09-0.06c0,0,0,0,0,0c-0.43-0.24-0.86-0.46-1.3-0.69c-0.19-0.1-0.37-0.2-0.56-0.29
		c-0.72-0.36-1.46-0.7-2.2-1.02c-0.06-0.03-0.12-0.06-0.18-0.08C54.11,46.22,53.21,45.86,52.28,45.55 M69.95,27.4l-1.78-0.79
		l1.89-3.77l1.64,1.09L69.95,27.4z M66.34,20.36l1.64,1.09l-2.08,4.15l-1.79-0.79L66.34,20.36z M61.27,26.8
		c0.06,0.07,0.12,0.14,0.2,0.2l3.71,2.47l3.71,2.47c0.17,0.11,0.36,0.17,0.55,0.19l-1.68,3.36l-2.96-1.31l-5.91-2.63L61.27,26.8z
		 M57.79,33.76l1.48,0.66l7.42,3.3l-2.65,5.74l-8.88-4.44L57.79,33.76z M36.18,6.18h2.47l0,2.47h-2.48V6.18z M37.23,12.37h0.38
		l2.06,12.37h-4.5L37.23,12.37z M33.41,27.21h0.31h7.42h0.3l1.77,6.18H31.64L33.41,27.21z M28.56,35.86H30h14.84h1.44l1.53,8.43
		c-0.13-0.03-0.25-0.05-0.38-0.07c-0.2-0.04-0.41-0.09-0.61-0.13c-1.81-3.51-5.42-5.76-9.4-5.76c-4.24,0-8.06,2.51-9.74,6.41
		c-0.17,0.05-0.34,0.1-0.51,0.15c-0.09,0.03-0.17,0.04-0.26,0.07L28.56,35.86z M22.56,46.49c-0.49,0.2-0.98,0.42-1.46,0.64
		c-0.16,0.08-0.33,0.15-0.49,0.23c-0.83,0.39-1.64,0.81-2.43,1.25c-0.09,0.05-0.17,0.1-0.26,0.15c-0.02,0.01-0.04,0.02-0.06,0.03
		c-0.03,0.02-0.07,0.04-0.1,0.06c-0.71,0.4-1.4,0.83-2.08,1.27c-0.09,0.06-0.17,0.11-0.26,0.17c-0.74,0.49-1.47,1.01-2.18,1.55
		l-5.12-12.8L18.18,35l4.56,11.41C22.68,46.43,22.62,46.46,22.56,46.49 M3.16,26.66l10.07-4.03l4.03,10.07L7.19,36.73L3.16,26.66z
		 M3.82,13.7l7.79,6.92l-8.65,3.46L3.82,13.7z"/>
	<path class="st0" d="M10.21,25.97c-2.05,0-3.71,1.67-3.71,3.71c0,2.05,1.66,3.71,3.71,3.71c2.05,0,3.71-1.66,3.71-3.71
		C13.92,27.64,12.26,25.97,10.21,25.97 M10.21,30.92c-0.68,0-1.24-0.56-1.24-1.24s0.56-1.24,1.24-1.24c0.68,0,1.24,0.56,1.24,1.24
		S10.89,30.92,10.21,30.92"/>
</g>
</svg>
