<?xml version="1.0" encoding="utf-8"?>
<!-- Generator: Adobe Illustrator 24.0.2, SVG Export Plug-In . SVG Version: 6.00 Build 0)  -->
<svg version="1.1" id="Layer_1" xmlns="http://www.w3.org/2000/svg" xmlns:xlink="http://www.w3.org/1999/xlink" x="0px" y="0px"
	 viewBox="0 0 496 376" style="enable-background:new 0 0 496 376;" xml:space="preserve" fill="#373737">
<g>
	<path d="M96,296c-13.26,0-24,10.74-24,24c0,13.26,10.74,24,24,24s24-10.74,24-24C119.99,306.75,109.25,296.01,96,296 M96,328
		c-4.42,0-8-3.58-8-8s3.58-8,8-8c4.42,0,8,3.58,8,8C103.99,324.42,100.42,327.99,96,328"/>
	<path d="M400,296c-13.26,0-24,10.74-24,24c0,13.26,10.74,24,24,24c13.25,0,24-10.74,24-24C423.98,306.75,413.25,296.01,400,296
		 M400,328c-4.42,0-8-3.58-8-8s3.58-8,8-8c4.42,0,8,3.58,8,8C407.99,324.42,404.42,327.99,400,328"/>
	<path d="M494.73,187.67l-72-112C421.26,73.38,418.72,72,416,72h-96V28c-0.02-15.46-12.54-27.98-28-28H28
		C12.54,0.02,0.02,12.54,0,28v292c0,4.42,3.58,8,8,8h32.58C45,358.61,73.39,379.84,104,375.42c24.57-3.55,43.88-22.85,47.42-47.42
		h193.16c4.42,30.61,32.81,51.84,63.42,47.42c24.57-3.55,43.88-22.85,47.42-47.42H488c4.42,0,8-3.58,8-8V192
		C496,190.46,495.56,188.96,494.73,187.67 M96,360c-22.09,0-40-17.91-40-40c0-22.09,17.91-40,40-40s40,17.91,40,40
		C135.98,342.08,118.08,359.98,96,360 M304,312H151.42C147,281.39,118.61,260.16,88,264.58c-24.57,3.55-43.88,22.85-47.42,47.42H16
		v-80h288V312z M304,216H16V28c0.01-6.62,5.38-11.99,12-12h264c6.62,0.01,11.99,5.38,12,12V216z M427.06,112l46.29,72H360v-72
		H427.06z M400,360c-22.09,0-40-17.91-40-40c0-22.09,17.91-40,40-40c22.09,0,40,17.91,40,40C439.98,342.08,422.08,359.98,400,360
		 M480,248h-16c-4.42,0-8-3.58-8-8s3.58-8,8-8h16V248z M480,216h-16c-13.26,0-24,10.75-24,24c0,13.26,10.74,24,24,24h16v48h-24.58
		c-4.42-30.61-32.81-51.84-63.42-47.42c-24.57,3.55-43.88,22.85-47.42,47.42H320V88h91.63l5.15,8H352c-4.42,0-8,3.58-8,8v88
		c0,4.42,3.58,8,8,8h128V216z"/>
	<path d="M376,216h-24c-4.42,0-8,3.58-8,8c0,4.42,3.58,8,8,8h24c4.42,0,8-3.58,8-8C384,219.58,380.42,216,376,216"/>
	<path d="M208,264h64c4.42,0,8-3.58,8-8s-3.58-8-8-8h-64c-4.42,0-8,3.58-8,8S203.58,264,208,264"/>
	<path d="M272,272h-24c-4.42,0-8,3.58-8,8s3.58,8,8,8h24c4.42,0,8-3.58,8-8S276.42,272,272,272"/>
</g>
</svg>
