<?xml version="1.0" encoding="utf-8"?>
<!-- Generator: Adobe Illustrator 24.0.2, SVG Export Plug-In . SVG Version: 6.00 Build 0)  -->
<svg version="1.1" id="Layer_1" xmlns="http://www.w3.org/2000/svg" xmlns:xlink="http://www.w3.org/1999/xlink" x="0px" y="0px"
	 viewBox="0 0 37.69 43.43" style="enable-background:new 0 0 37.69 43.43;" xml:space="preserve">
<style type="text/css">
	.st0{fill:#373737;}
	.st1{fill-rule:evenodd;clip-rule:evenodd;fill:#373737;}
</style>
<g>
	<path class="st0" d="M35.74,20.83l-7.46-7.46c-0.2-0.19-0.41-0.36-0.65-0.5V0.9c0-0.24-0.1-0.47-0.26-0.64
		C27.21,0.1,26.98,0,26.74,0H3.77C2.76,0,1.82,0.39,1.11,1.11C0.39,1.82,0,2.77,0,3.77v28.71c0,1.01,0.39,1.95,1.11,2.67
		c0.71,0.71,1.66,1.1,2.67,1.11h17.1c0.22,1.95,1.13,3.74,2.58,5.06c1.49,1.36,3.42,2.11,5.44,2.12h7.9c0.24,0,0.47-0.1,0.64-0.26
		c0.17-0.17,0.26-0.4,0.26-0.64v-17C37.69,23.78,36.99,22.07,35.74,20.83z M25.84,28.15l-4.72-4.72c-0.7-0.73-1.68-1.15-2.68-1.16
		c-1.02,0-1.99,0.39-2.71,1.11c-0.71,0.71-1.11,1.7-1.1,2.71c0.01,1.01,0.44,1.99,1.16,2.68l4.45,4.46
		c0.32,0.32,0.53,0.75,0.57,1.21L3.77,34.45c-0.52,0-1.03-0.21-1.39-0.58C2.01,33.5,1.8,33.01,1.8,32.48V3.77
		c0-0.53,0.2-1.02,0.58-1.39C2.75,2.01,3.25,1.8,3.77,1.8h22.07V28.15z M17.05,24.7c0.38-0.36,0.87-0.56,1.39-0.56
		c0.52,0,1.02,0.2,1.39,0.56l0.25,0.25l-2.78,2.78l-0.24-0.24c-0.37-0.37-0.58-0.87-0.58-1.39C16.47,25.57,16.69,25.07,17.05,24.7z
		 M21.51,31.95l-2.94-2.95l2.79-2.79l6.9,6.9c0.35,0.34,0.92,0.33,1.26-0.01c0.35-0.34,0.35-0.91,0.01-1.27l-1.89-1.89V15.28
		l6.83,6.83c0.9,0.9,1.42,2.15,1.42,3.42v16.1h-6.99c-1.68,0-3.25-0.66-4.44-1.84c-1.19-1.18-1.84-2.76-1.84-4.44v-0.74
		C22.62,33.63,22.22,32.65,21.51,31.95z"/>
	<path class="st0" d="M2.87,5.21v2.87c0,0.24,0.1,0.47,0.26,0.64c0.17,0.17,0.4,0.26,0.64,0.26c0.24,0,0.47-0.1,0.64-0.26
		c0.17-0.17,0.26-0.4,0.26-0.64V5.21c0-0.29,0.24-0.53,0.53-0.53h2.87c0.5,0,0.9-0.4,0.9-0.9s-0.4-0.9-0.9-0.9H5.21
		c-0.62,0-1.22,0.25-1.65,0.68C3.11,4,2.87,4.58,2.87,5.21z"/>
	<path class="st0" d="M8.08,31.58C8.08,31.58,8.08,31.58,8.08,31.58H5.21c-0.29,0-0.53-0.24-0.53-0.53v-2.87c0-0.5-0.4-0.9-0.9-0.9
		s-0.9,0.4-0.9,0.9v2.87c0,0.62,0.25,1.22,0.68,1.65c0.44,0.43,1.04,0.68,1.65,0.68h2.87c0.5,0,0.9-0.4,0.9-0.9
		c0-0.24-0.09-0.47-0.26-0.64C8.55,31.67,8.32,31.58,8.08,31.58z"/>
	<path class="st1" d="M18.22,18.16c-1.19,1.3-2.91,2.12-4.82,2.12c-3.61,0-6.53-2.93-6.53-6.53c0-2.52,1.42-4.7,3.51-5.79
		c-1.07,1.16-1.72,2.71-1.72,4.42c0,3.61,2.93,6.53,6.53,6.53C16.28,18.9,17.31,18.63,18.22,18.16
		C18.22,18.16,17.31,18.63,18.22,18.16L18.22,18.16z M16.43,11.5l-1.32,0.71l0.25-1.51L14.3,9.63l1.48-0.22l0.66-1.38l0.66,1.38
		l1.48,0.22L17.5,10.7l0.25,1.51L16.43,11.5z"/>
</g>
</svg>
